<?xml version="1.0" encoding="UTF-8"?>
<svg id="Camada_1" xmlns="http://www.w3.org/2000/svg" version="1.1" viewBox="0 0 1190.55 841.89">
  <!-- Generator: Adobe Illustrator 29.3.1, SVG Export Plug-In . SVG Version: 2.1.0 Build 151)  -->
  <path d="M539.87,122.28c10.96-1.62,21.84-2.69,32.54-3.26v-16.83c-1.4.07-2.79.14-4.18.22l-.43-3.77c-.13-1.16-1.16-1.99-2.3-1.86l-4.31.51c-1.14.13-1.95,1.18-1.82,2.34l.38,3.35c-1.56.12-3.11.25-4.65.39l-.36-3.2c-.13-1.16-1.16-1.99-2.3-1.86l-4.31.51c-1.14.13-1.95,1.18-1.82,2.34l.35,3.05c-1.55.17-3.1.36-4.63.55l-.35-3.06c-.13-1.16-1.16-1.99-2.3-1.86l-3.85.45,4.35,21.96Z"/>
  <path d="M728.28,116.93l-.95,2.84c-1.33-.43-2.68-.85-4.06-1.27l.99-2.97c.35-1.03-.2-2.16-1.21-2.51l-2.21-.77-4.3,21.72c7.44,2.15,14.48,4.57,21.05,7.22l8.4-20.19c-.09-.05-.18-.09-.27-.13l-3.63-1.26c-1.02-.35-2.12.2-2.47,1.24l-1.01,3.03c-1.29-.53-2.6-1.06-3.96-1.57l.95-2.86c.35-1.03-.2-2.16-1.21-2.51l-3.63-1.26c-1.02-.35-2.12.2-2.47,1.24Z"/>
  <path d="M634.7,97.1l-4.28-.28c-.19-.01-.38.01-.56.05v22.16c10.63.6,20.96,1.69,30.89,3.2l3.34-16.85c-.61-.09-1.22-.18-1.84-.26l.26-4.11c.07-1.15-.78-2.14-1.91-2.21l-4.28-.28c-1.13-.07-2.1.8-2.17,1.95l-.23,3.66c-1.52-.16-3.04-.32-4.58-.47l.22-3.49c.07-1.15-.78-2.14-1.91-2.21l-4.28-.28c-1.13-.07-2.1.8-2.17,1.95l-.21,3.34c-1.52-.11-3.05-.21-4.59-.31l.21-3.33c.07-1.15-.78-2.14-1.91-2.21Z"/>
  <path d="M457.5,124.78c-1.35.54-2.68,1.1-3.97,1.66l5.96,14.32c7.78-2.74,15.6-5.13,23.42-7.2l-3.19-16.11c-1.12.3-2.23.6-3.32.92l.09-.03-1.33-3.63c-.38-1.04-1.52-1.57-2.54-1.18l-3.65,1.38c-1.02.39-1.54,1.54-1.16,2.58l1.18,3.23-4.1,1.34-1.11-3.04c-.38-1.04-1.52-1.57-2.54-1.18l-3.65,1.38c-1.02.39-1.54,1.54-1.16,2.58l1.09,2.98Z"/>
  <g>
    <path d="M940.83,507.06l-1.09-.4-17.05,12c2.11-3.27,4.9-6.09,7.07-9.32,15.37-22.93,20.75-52.33,17.58-79.57l-1.3-.68c-13.09,13.4-24.07,28.8-32.87,45.4-2.46,4.63-4.32,9.99-6.79,14.44-.28.51-.79,1.7-.9.21l1.96-18.54c25.11-18.9,38.12-51.92,36.61-83.05-.59-12.08-3.67-25.27-7.26-36.67-2.26.35-8.77,15.02-11.03,17.22,7.1-30.1,1.22-62.64-15.46-88.52-.74.09-3.77,9.51-4.23,11.02-6.19,20.12-8.15,41.69-7.51,63.01-5.61-26.83-28.93-64.15-54.51-81.96-3.02,22.69,9.01,52.74,30.98,78.15-7.56-5.76-16.12-10.11-25.31-12.28,4.93,23.25,15.24,45.08,28.82,64.42,1.67,2.38,6.79,7.98,7.68,9.83.12.24.25.79-.14.77-4.76-4.53-9.61-9.25-15.17-12.86-.98-.64-5.1-3.5-5.91-2.47.89,21.44,4.29,42.58,11.9,62.69,1.3,3.45,3.77,6.79,4.23,10.55l-12.79-13.93c-2.39,6.91-3.31,14.55-3.98,21.9-1.67,18.29-.81,36.68,3.12,54.68-.93-.03-.98-.91-1.29-1.53-2.46-4.94-4.62-10.1-8.28-14.32-.26-.3-.9-1.14-1.3-.64-9.69,23.76-16.98,48.99-16.51,74.95l-5.85-17.25-.95-1.05c-21.42,27.7-34.41,62.28-35.79,97.48-.05,1.29-.68,8.72.78,8.59,8.34-5.98,15.76-12.53,22.07-20.66,42.72,1.88,82.79-33.51,95.47-72.62.48-1.49,1.28-2.88.81-4.5-15.2,5.44-30.28,13.12-43.47,22.42-6.28,4.43-12.01,9.65-18.11,14.3-.4.31-1.1,1.26-1.59.58,3.79-5.2,7.18-10.69,9.87-16.55,44.61-8.26,73.55-52.16,77.47-95.21ZM926.08,526.13c.45-.37,3.64-2.8,3.85-2.64-6.53,28.72-26.22,56-54,67.17-.53-.39,3.06-6.8,3.58-7.74,10.94-19.63,29.1-42.64,46.57-56.8ZM893.18,498.89c-.22-1.1-3.68-11.86-2.93-11.99l10.49,15.57-5.8,16.7c.26-6.54-.47-13.83-1.76-20.29ZM891.99,540.98l15.86-8.88-21.01,25.67c-.82-.31-.02-1.2.14-1.67,1.75-5,3.98-9.87,5.01-15.11ZM930.14,460.66c.68-1.05,9.42-13.74,10.1-13.03.19,30.19-13.15,62.16-38.68,79.25-.21-1.17.13-2.33.44-3.44,6.01-21.43,16.01-44.13,28.14-62.78ZM907.32,402.37c3.59-4.52,6.99-9.05,10.12-13.9l-8.3,31.53-1.82-17.62ZM933.45,370.58c.91.46.89,1.26,1.08,2.1,1.79,8.18,2.09,19.49,1.44,27.85-1.49,19.35-8.82,40.01-22.62,53.83.86-28.78,7.78-57.83,20.1-83.79ZM910.1,305.66c.44-2.07.93-4.96,2.13-6.61,11.71,27.6,13.1,60.8-2.71,86.97-1.7-4.2-1.27-8.47-1.72-12.66-2.46-22.89-2.52-45.11,2.3-67.7ZM907.27,432.77c-.45,6.3-1.15,12.49-1.4,18.82-.03.85.42.81-.87.88-1.36-10.24-5.5-20.08-10.81-28.89-2.02-3.36-4.67-6.34-6.64-9.73,6.49,6.32,12.77,13,19.72,18.92ZM900.89,382.14c-.98-.02-.93-.98-1.27-1.55-1.46-2.48-2.47-5.24-3.95-7.7-1.53-2.55-3.23-5.02-5.05-7.42,2.7,2.37,5.48,4.67,8.37,6.87.23-.89.4-1.83.54-2.8.37,4.23.82,8.43,1.36,12.6ZM879.42,326.17c1.7,3.35,12.09,27.86,7.36,25.67-17.2-18.4-30.14-41.18-31.11-59.28,9.93,10.52,17.65,21.61,23.75,33.61ZM861.09,350.13c14.18,7.03,25.94,20.6,32.39,35.04,3.43,7.69,7.58,20.76,7.81,29.09.02.76.12,1.24-.53,1.81-18.38-18.08-31.92-41.38-39.67-65.94ZM873.6,411.72c7.58,5.53,13.44,13.87,17.59,22.29,6.5,13.2,10.59,34.97,7.42,49.46-.12.56-.06,1.22-.79,1.4-13.5-22.12-21.79-47.24-24.22-73.14ZM871.75,481.32c.1-1.18.7-8.17,1.42-8.26,16.6,21.71,18.15,52.74,7.61,77.43-.85-.35-.74-.99-.99-1.62-7.6-19.13-9.74-47.1-8.04-67.55ZM871.42,550.52c-.06-.61-.63-1.8.25-1.8l7.74,19.44-9.04,15.18c-.04-2.35.81-4.54,1.13-6.93,1.35-9.97.89-16-.08-25.89ZM805.95,663.08c1.1-20.61,8.04-40.58,16.85-59.1l8.47-14.26c5.62,26.99-5.76,54.89-25.32,73.36ZM837.14,626.89c1.55-5.04,1.87-9.4,2.56-14.53.11-.79.14-2.78.83-3.15l3.09,19.48-11.9,12.11c1.48-4.7,3.97-9.22,5.41-13.92ZM854.25,629.19c14.47-13.45,30.81-25.06,48.66-33.62.29.21-1.05,3.19-1.29,3.69-1.4,2.81-4.17,7.03-5.98,9.7-13.78,20.38-35.85,37.33-60.62,41.01-.3-.8.13-1.04.55-1.58,4.78-6.12,12.9-13.81,18.69-19.2ZM852.76,606.25c-.42.71-3.66,5.96-4.3,5.41-2.73-26.5.93-52.77,9.55-77.78.99-.28.8-.2,1.19.47,1.69,2.84,3.65,10.31,4.31,13.69,3.83,19.6-.66,41.17-10.75,58.2Z"/>
    <path d="M798.27,679.8c-.24,0-.45-.09-.64-.27-.75-.72-.93-3.09-.62-8.17.02-.29.03-.52.04-.67,1.37-34.88,14.12-69.6,35.89-97.76.09-.11.22-.18.37-.19.13,0,.28.05.38.16l.95,1.05s.08.11.1.17l4.88,14.4c.09-21.7,5.39-44.71,16.57-72.12.02-.04.04-.08.07-.12.17-.21.4-.33.66-.34h.01c.56,0,1.03.56,1.32.89,3.13,3.62,5.18,7.85,7.16,11.94.4.84.81,1.67,1.22,2.5-3.48-16.89-4.39-34.69-2.72-52.92.63-6.87,1.51-14.8,4-22.01.06-.16.19-.28.36-.32.16-.04.34.02.46.15l11.6,12.64c-.49-1.74-1.33-3.43-2.16-5.07-.61-1.2-1.23-2.45-1.7-3.69-7.04-18.61-10.94-39.17-11.93-62.84,0-.12.03-.23.1-.32.85-1.08,3.12.09,6.27,2.18l.28.19c5.11,3.32,9.63,7.57,13.99,11.72-.87-1.23-2.37-3.04-3.74-4.68-1.33-1.6-2.59-3.1-3.28-4.09-14.45-20.58-24.18-42.31-28.9-64.59-.04-.16.02-.33.13-.45.12-.12.29-.17.45-.13,7.73,1.82,15.21,5.2,22.27,10.04-20.56-24.99-31.45-53.63-28.54-75.5.02-.17.13-.31.29-.38.15-.07.33-.05.47.05,22.97,15.99,46.24,50.03,53.65,77.82-.26-21.59,2.3-41.29,7.63-58.62,1.58-5.12,3.66-11.24,4.64-11.36.18-.03.37.06.47.22,16.54,25.66,22.34,57.08,16.05,86.57.86-1.39,1.91-3.33,3-5.33,3.36-6.17,5.51-9.93,6.96-10.16.24-.04.46.11.54.33,2.96,9.42,6.63,23.45,7.28,36.79,1.58,32.6-12.8,65.29-36.64,83.34l-1.88,17.7c1.25-2.28,2.37-4.85,3.46-7.33,1.02-2.33,2.07-4.74,3.25-6.96,9.05-17.07,20.14-32.38,32.95-45.51.15-.15.38-.19.57-.09l1.3.68c.14.07.24.21.26.37,3.37,29-3.06,58.12-17.65,79.9-1.05,1.56-2.26,3.05-3.42,4.49-.68.83-1.36,1.68-2.02,2.54l14.74-10.38c.13-.09.3-.11.45-.06l1.09.4c.2.08.33.28.32.5-3.73,40.99-31.58,86.94-77.62,95.6-2.32,5.01-5.24,9.98-8.91,15.15,2.52-1.92,5.02-3.98,7.44-5.96,3.44-2.82,6.99-5.74,10.68-8.34,12.97-9.14,28.04-16.92,43.59-22.48.13-.04.27-.04.38.02.12.06.21.17.25.3.42,1.44-.05,2.69-.5,3.89-.11.3-.22.59-.32.89-12.11,37.34-51.23,74.76-95.7,72.97-5.76,7.39-12.76,13.93-22.01,20.56-.07.05-.15.08-.24.09-.03,0-.05,0-.08,0ZM833.36,573.99c-21.44,27.92-33.98,62.26-35.34,96.74,0,.15-.02.39-.04.69-.33,5.59.02,6.99.26,7.34,9.15-6.59,16.06-13.08,21.75-20.41.1-.12.26-.2.4-.19,34.68,1.5,79.68-25.09,94.99-72.29.1-.31.22-.62.33-.93.35-.94.69-1.83.58-2.77-15.28,5.52-30.07,13.18-42.83,22.17-3.66,2.58-7.2,5.49-10.62,8.3-2.43,2-4.94,4.06-7.47,5.99-.07.05-.15.13-.24.21-.35.33-.79.75-1.33.7-.19-.02-.47-.11-.7-.44-.12-.17-.12-.4,0-.57,4.12-5.65,7.33-11.04,9.82-16.47.07-.14.2-.25.35-.27,45.56-8.44,73.2-53.81,77.04-94.41l-.5-.18-16.84,11.86c-.19.13-.45.11-.61-.05-.17-.16-.2-.42-.07-.61,1.11-1.73,2.43-3.35,3.7-4.91,1.15-1.42,2.35-2.89,3.37-4.42,14.42-21.52,20.81-50.3,17.53-78.99l-.75-.39c-12.65,13-23.59,28.15-32.54,45.03-1.16,2.19-2.2,4.58-3.21,6.89-1.12,2.56-2.27,5.2-3.58,7.55l-.1.19c-.28.54-.57,1.09-1.1.98-.53-.11-.58-.79-.61-1.16l1.96-18.63c.02-.13.08-.26.19-.34,23.7-17.84,37.99-50.27,36.42-82.64-.63-12.99-4.15-26.66-7.07-36.01-1.31,1.06-4.03,6.05-5.89,9.46-1.89,3.46-3.52,6.46-4.51,7.42-.16.15-.39.18-.58.07-.19-.11-.28-.32-.23-.54,7-29.68,1.52-61.56-15.03-87.57-.86,1.63-2.78,7.28-3.72,10.34-5.67,18.44-8.19,39.59-7.49,62.86,0,.25-.18.47-.43.5-.24.03-.48-.14-.53-.38-5.86-28.04-29.84-64.26-53.66-81.2-2.61,22.39,9.2,51.79,30.97,76.97.16.19.16.47-.01.65-.17.18-.45.21-.65.05-7.67-5.85-15.87-9.88-24.38-12.01,4.75,21.89,14.37,43.24,28.58,63.48.67.96,1.92,2.45,3.23,4.03,1.94,2.32,3.94,4.72,4.49,5.87.06.12.32.74.03,1.17-.14.21-.36.31-.64.3-.11,0-.22-.06-.3-.13l-.65-.62c-4.52-4.31-9.18-8.76-14.45-12.18l-.29-.19c-3.49-2.31-4.54-2.49-4.86-2.44,1,23.45,4.88,43.82,11.85,62.26.45,1.2,1.04,2.36,1.66,3.6,1.13,2.24,2.29,4.55,2.6,7.06.03.21-.09.41-.28.5-.19.09-.42.04-.56-.11l-12.23-13.32c-2.26,6.91-3.09,14.45-3.69,21.01-1.73,18.82-.68,37.17,3.11,54.53.03.15,0,.3-.1.41-.1.12-.23.19-.39.17-1.04-.04-1.34-.85-1.54-1.39-.05-.14-.1-.28-.16-.41-.43-.85-.84-1.71-1.26-2.57-1.95-4.03-3.97-8.2-6.96-11.65-.27-.32-.45-.5-.56-.58-11.59,28.47-16.8,52.17-16.4,74.56,0,.24-.17.45-.4.49-.25.04-.47-.1-.54-.32l-5.81-17.15-.5-.54ZM906.04,489.53h0ZM910.54,279.99h0ZM805.95,663.57c-.07,0-.14-.01-.2-.04-.18-.08-.29-.27-.28-.47.96-18,6.49-37.39,16.9-59.28l8.49-14.3c.1-.17.31-.27.5-.23.2.03.35.18.4.38,5.34,25.66-4.42,53.94-25.46,73.82-.09.09-.21.13-.33.13ZM831.04,591.06l-7.83,13.17c-10.1,21.23-15.57,40.12-16.71,57.65,19.85-19.27,29.17-46.19,24.53-70.82ZM835.01,650.46c-.2,0-.38-.12-.46-.32-.35-.93.07-1.41.41-1.8.07-.08.14-.16.21-.25,4.64-5.93,12.45-13.41,18.75-19.25l.33.36-.33-.36c15.2-14.13,31.61-25.46,48.78-33.7.16-.07.35-.06.5.05.48.36.1,1.8-1.15,4.29-1.37,2.74-4.03,6.82-6.01,9.76-15.15,22.39-37.93,37.8-60.95,41.21-.02,0-.05,0-.07,0ZM902.28,596.42c-16.78,8.16-32.82,19.3-47.7,33.13-6.27,5.82-14.05,13.26-18.64,19.14-.08.1-.16.2-.24.29-.17.2-.27.32-.3.45,22.6-3.51,44.93-18.71,59.83-40.73,1.97-2.91,4.6-6.95,5.95-9.65.27-.54.81-1.8,1.1-2.63ZM831.73,641.29c-.09,0-.17-.02-.25-.07-.19-.12-.28-.35-.21-.56.73-2.33,1.73-4.65,2.69-6.89.98-2.29,2-4.66,2.72-7.03h0c1.24-4.05,1.7-7.72,2.18-11.61.12-.93.23-1.87.36-2.85.02-.14.04-.32.05-.52.13-1.4.3-2.6,1.03-2.99.14-.07.3-.08.45,0,.14.07.24.2.26.36l3.09,19.48c.02.15-.02.31-.13.42l-11.9,12.11c-.09.1-.22.15-.35.15ZM840.33,611.04c-.05.33-.07.65-.09.83-.02.22-.04.41-.06.56-.13.97-.25,1.91-.36,2.84-.49,3.93-.95,7.64-2.21,11.77h0c-.74,2.42-1.77,4.81-2.76,7.13-.67,1.56-1.36,3.16-1.95,4.77l10.22-10.4-2.78-17.49ZM837.14,626.89h.01-.01ZM848.57,612.19c-.16,0-.31-.05-.43-.16-.09-.08-.15-.19-.17-.32-2.64-25.64.58-51.88,9.58-77.99.05-.15.17-.27.33-.31.85-.24,1.21-.31,1.6.42.04.07.09.16.15.26,1.75,2.94,3.71,10.47,4.37,13.85,3.71,18.97-.33,40.86-10.81,58.55h0c-.54.92-3.31,5.49-4.48,5.68-.04,0-.08,0-.12,0ZM858.39,534.28c-8.81,25.66-12.01,51.45-9.51,76.66.83-.83,2.47-3.26,3.46-4.94h0c10.36-17.49,14.36-39.12,10.69-57.86-.63-3.22-2.58-10.73-4.25-13.54-.07-.12-.13-.22-.17-.31-.01-.02-.02-.04-.03-.05-.06.01-.13.03-.2.05ZM852.76,606.25h.01-.01ZM875.93,591.15c-.1,0-.2-.03-.29-.09-.43-.31-.87-.63,3.42-8.33,11.81-21.19,30.13-43.54,46.71-56.97h0c3.86-3.12,4.25-2.81,4.46-2.64.14.12.21.31.17.49-7.05,31.01-27.85,56.88-54.29,67.52-.06.02-.12.04-.18.04ZM876.36,590.51h.01-.01ZM926.39,526.51h0c-16.49,13.36-34.72,35.6-46.45,56.65-2.02,3.63-3.04,5.75-3.41,6.73,25.49-10.59,45.56-35.54,52.69-65.48-.92.63-2.35,1.7-2.83,2.09ZM870.37,583.82s-.08,0-.13-.02c-.21-.06-.36-.24-.36-.46-.02-1.51.3-2.96.62-4.37.19-.85.39-1.74.51-2.63,1.35-9.99.87-16-.08-25.77h0c-.01-.13-.05-.28-.09-.45-.13-.53-.28-1.13.06-1.55.12-.15.35-.34.77-.34h0c.2,0,.38.12.45.31l7.74,19.44c.06.14.04.3-.03.43l-9.04,15.18c-.09.15-.25.24-.42.24ZM871.92,550.66c.95,9.73,1.42,15.78.06,25.81-.13.93-.33,1.84-.53,2.71-.16.72-.32,1.41-.43,2.1l7.85-13.18-6.95-17.45ZM886.83,558.26c-.06,0-.12-.01-.17-.03-.39-.15-.55-.4-.62-.58-.18-.49.09-.99.32-1.39.06-.12.13-.23.16-.32.5-1.41,1.03-2.81,1.56-4.21,1.33-3.5,2.7-7.11,3.43-10.83.03-.14.11-.26.24-.33l15.86-8.89c.2-.11.46-.07.61.11s.15.44,0,.62l-21.01,25.67c-.09.12-.23.18-.38.18ZM892.42,541.3c-.76,3.73-2.12,7.31-3.43,10.77-.53,1.39-1.06,2.79-1.55,4.19,0,0,0,.02,0,.02l18.42-22.5-13.42,7.52ZM880.78,550.98c-.06,0-.13-.01-.19-.04-.85-.35-1.01-.97-1.13-1.46-.03-.14-.07-.28-.13-.43-7.83-19.72-9.7-48.25-8.07-67.77h0c.72-8.56,1.39-8.65,1.84-8.7.18-.02.34.05.45.19,15.95,20.87,18.96,51.46,7.67,77.92-.08.18-.26.3-.45.3ZM872.24,481.37c-1.62,19.41.23,47.75,8,67.33.07.19.12.37.17.55.05.21.09.36.17.49,10.77-25.77,7.9-55.36-7.34-75.79-.28,1.01-.66,3.48-.99,7.42h0ZM901.56,527.37c-.06,0-.13-.01-.19-.04-.15-.06-.26-.2-.29-.36-.22-1.25.12-2.49.43-3.58,6.15-21.92,16.42-44.85,28.22-62.99h0c.09-.13,8.81-13.13,10.37-13.28.18,0,.38.07.48.17.09.09.14.21.14.33.2,32.43-15.06,63.7-38.9,79.66-.08.06-.17.08-.27.08ZM930.55,460.92h0c-11.75,18.06-21.98,40.89-28.08,62.64-.24.84-.46,1.65-.49,2.44,22.96-15.78,37.71-46.02,37.77-77.52-1.99,2.03-7.99,10.57-9.21,12.44ZM894.94,519.67s-.06,0-.09,0c-.24-.04-.4-.26-.39-.5.24-6.13-.38-13.3-1.75-20.17h0c-.06-.27-.36-1.32-.72-2.53-2.09-7.09-2.57-9.19-2.21-9.77.07-.12.25-.24.39-.27.2-.03.38.05.48.21l10.49,15.57c.09.13.11.29.06.43l-5.8,16.7c-.07.2-.26.33-.46.33ZM893.66,498.8c1.16,5.84,1.79,11.89,1.82,17.36l4.73-13.61-9.35-13.88c.47,2.1,1.53,5.7,2.06,7.51.39,1.33.68,2.3.74,2.61h0ZM897.82,485.34c-.17,0-.32-.09-.42-.23-13.46-22.07-21.86-47.43-24.29-73.35-.02-.19.08-.37.24-.47s.37-.08.53.03c8.61,6.29,14.4,15.69,17.74,22.47,6.25,12.69,10.75,34.77,7.46,49.77-.02.09-.03.19-.05.29-.08.5-.19,1.26-1.11,1.48-.04,0-.08.01-.11.01ZM874.19,412.77c2.53,25.22,10.74,49.87,23.78,71.41.04-.1.07-.24.1-.47.02-.12.04-.23.06-.35,3.24-14.79-1.21-36.6-7.39-49.14-3.18-6.45-8.59-15.29-16.56-21.45ZM913.35,454.85c-.06,0-.13-.01-.19-.04-.18-.08-.3-.26-.29-.46.87-29,7.84-58.04,20.14-83.98.06-.12.16-.21.28-.25.12-.04.26-.03.38.02.98.49,1.12,1.31,1.25,2.03.02.13.05.26.08.4,1.98,9.02,2.02,20.72,1.45,28-1.67,21.58-9.96,41.31-22.76,54.14-.09.09-.22.14-.34.14ZM933.63,371.33c-11.92,25.31-18.73,53.55-19.75,81.8,12.14-12.68,19.99-31.77,21.61-52.63.56-7.21.52-18.8-1.43-27.71-.03-.15-.06-.29-.09-.43-.08-.46-.15-.78-.33-1.02ZM905.05,452.95c-.24,0-.5-.18-.53-.42-1.23-9.25-4.84-18.91-10.74-28.7-.96-1.59-2.08-3.12-3.16-4.61-1.2-1.64-2.44-3.34-3.48-5.13-.12-.21-.07-.48.12-.63.19-.15.46-.13.64.04,1.87,1.82,3.73,3.68,5.59,5.53,4.51,4.51,9.18,9.17,14.11,13.37.12.1.18.25.17.41-.16,2.25-.35,4.48-.55,6.71-.34,3.95-.69,8.03-.85,12.09,0,.18.01.31.03.41.03.17.06.41-.11.63-.2.25-.46.26-1.2.3h-.03ZM890.54,417.47c.28.4.57.79.86,1.18,1.1,1.5,2.23,3.06,3.21,4.68,5.83,9.67,9.45,19.21,10.78,28.39,0-.05,0-.09,0-.14.17-4.09.52-8.18.86-12.13.19-2.15.37-4.29.53-6.45-4.89-4.18-9.51-8.8-13.98-13.26-.75-.75-1.51-1.5-2.26-2.25ZM909.14,420.48s-.02,0-.04,0c-.23-.02-.42-.2-.45-.43l-1.82-17.62c-.01-.13.02-.25.1-.35,4.13-5.19,7.34-9.6,10.1-13.86.13-.2.39-.28.6-.18.22.1.34.34.28.57l-8.31,31.53c-.06.22-.25.36-.47.36ZM907.82,402.52l1.52,14.77,6.88-26.1c-2.37,3.5-5.09,7.16-8.4,11.33ZM900.75,416.56c-.12,0-.25-.05-.34-.14-17.95-17.66-31.71-40.53-39.79-66.14-.06-.19,0-.39.15-.52.15-.13.35-.15.53-.07,13.57,6.73,25.76,19.92,32.62,35.28,3.64,8.16,7.63,21.19,7.85,29.27v.23c.03.67.06,1.3-.7,1.97-.09.08-.2.12-.32.12ZM861.9,351.09c8.02,24.84,21.42,47.03,38.82,64.27.11-.22.1-.45.09-.85v-.24c-.23-7.96-4.18-20.84-7.78-28.9-6.59-14.77-18.17-27.5-31.13-34.28ZM909.53,386.5s-.02,0-.04,0c-.18-.01-.34-.13-.41-.3-1.24-3.05-1.38-6.15-1.52-9.13-.06-1.2-.11-2.45-.24-3.65-2.78-25.88-2.04-47.44,2.31-67.85h0l.15-.74c.42-2.01.93-4.51,2.06-6.06.1-.14.28-.21.45-.2.17.02.32.13.39.29,12.93,30.49,11.91,63.17-2.74,87.41-.09.15-.25.23-.42.23ZM910.58,305.76c-4.33,20.31-5.06,41.78-2.29,67.55.13,1.24.19,2.49.24,3.71.12,2.59.24,5.26,1.1,7.87,13.85-23.65,14.8-55.19,2.53-84.78-.7,1.39-1.09,3.31-1.42,4.9l-.16.75ZM900.89,382.62h0c-1.05-.02-1.33-.85-1.5-1.34-.06-.17-.11-.33-.18-.44-.73-1.23-1.35-2.55-1.95-3.81-.62-1.3-1.25-2.65-2-3.88-1.46-2.42-3.14-4.9-5.02-7.37-.15-.2-.13-.48.06-.65.18-.17.46-.17.65,0,2.6,2.28,5.2,4.43,7.75,6.4.13-.6.25-1.26.36-2.03.04-.24.23-.42.49-.42.25,0,.45.2.47.44.37,4.27.83,8.5,1.35,12.58.02.14-.03.28-.12.39-.09.1-.22.16-.36.16ZM893.42,368.51c.96,1.39,1.85,2.77,2.67,4.13.77,1.28,1.42,2.64,2.04,3.97.59,1.25,1.21,2.54,1.91,3.74.08.13.14.27.19.41-.33-2.64-.62-5.34-.89-8.07-.05.05-.12.09-.19.12-.15.05-.32.03-.45-.07-1.74-1.33-3.5-2.74-5.28-4.22ZM887.31,352.46c-.2,0-.45-.05-.73-.18-.06-.03-.11-.06-.15-.11-18.35-19.63-30.32-42.46-31.24-59.59,0-.2.11-.39.29-.47.19-.08.4-.04.54.11,9.74,10.33,17.54,21.36,23.82,33.73h0c.12.23,10.73,23.59,8.21,26.2-.13.14-.38.31-.75.31ZM887.07,351.43c.16.06.27.07.29.04,1.58-1.64-6.17-20.75-8.38-25.08-6.04-11.88-13.48-22.53-22.73-32.5,1.44,16.73,13.14,38.61,30.81,57.54Z"/>
  </g>
  <g>
    <path d="M522.81,600.56c0,4.14-1.4,7.43.71,12.42,28.24-9.13,47.28-3.88,52.79-1.05.97.5,2.15.1,2.59-.85,1.77-2.49,3.9-6.32,5.71-8.79-18.71-8.53-42.33-8.08-61.8-1.72Z"/>
    <path d="M520.56,597.89c0,4.62,0,10-.32,14.78-30.55-10.19-48.59-3.9-54.55-.75-1.05.55-2.33.11-2.81-.95-1.91-2.78-4.69-8.17-6.65-10.93,20.25-9.52,43.24-9.25,64.32-2.15Z"/>
    <polygon points="523.52 612.98 520.23 526.99 520.23 612.66 523.52 612.98"/>
    <path d="M566.51,524.37c2.96,22.73,3.89,31.44,5.66,51.43.1,1.09-.7,2.05-1.78,2.14-15.52,1.37-33.79,2.63-47.56,18.08l.17,3.25c19.58-8.46,41.82-7.81,61.62-.81-2.9-29.26-5.83-42.73-8.79-71.17-.09-.86-.7-1.59-1.52-1.78"/>
    <path d="M522.4,596.91l-2.07-69.63.57-.59c10.71-11.1,24.43-19.85,36.71-23.39h0c1.09-.32,2.26-.13,3.21.52.94.65,1.54,1.67,1.65,2.81,1.2,13.36,2.19,23.05,3.15,32.42.88,8.59,1.71,16.71,2.68,27.33.18,2.04-1.25,3.84-3.27,4.11-12.7,1.71-26.7,9.91-39.42,23.1l-3.2,3.32ZM524.26,528.81l1.75,58.88c12.57-12.09,25.81-19.34,38.49-21.05-1.05-10.51-1.88-18.61-2.76-27.19-.96-9.36-1.95-19.04-3.15-32.38-11.42,3.32-24.19,11.42-34.33,21.74Z"/>
    <path d="M455.7,596.77l.32-3c1.5-14.25,3.04-24.7,4.53-34.8,1.38-9.32,2.8-18.96,4.2-31.66.18-1.65,1.4-2.99,3.03-3.33,17.11-3.65,34.92-2.67,51.49,2.84l1.33.44v69.41l-2.56-.85c-19.18-6.37-40.31-6.37-59.49,0l-2.86.95ZM488.31,587.16c9.6,0,19.2,1.39,28.42,4.16v-61.25c-15.53-4.9-32.14-5.7-48.11-2.3-1.41,12.75-2.84,22.42-4.22,31.76-1.38,9.35-2.8,19-4.2,31.69,9.12-2.72,18.61-4.07,28.11-4.07Z"/>
    <rect x="517.29" y="579.25" width="8.56" height="22.79" transform="translate(-23.03 21.16) rotate(-2.27)"/>
    <rect x="521.27" y="584.26" width=".6" height=".6"/>
  </g>
  <path d="M606.19,790.56c-73.58,0-147.05-22.67-209.1-67.85-10.86-7.91-11.05-8.35-11.53-9.54-.5-1.22-.45-2.56.16-3.67.42-.77,1.26-1.74,2.91-2.12l30.73-13.04,5.81-34.35c.19-1.12.86-2.11,1.84-2.69,2.88-1.72,5.37.28,10.32,4.25.53.43.95.77,1.17.92,48.29,34.16,104.17,52.95,161.61,54.32,57.69,1.36,114.28-14.88,163.68-47.03.8-.52,1.94-1.38,3.14-2.3,2.47-1.88,5.03-3.81,7.02-4.64.6-.27,1.95-.88,3.71-.4,1.62.45,2.77,1.88,2.85,3.56l1.58,31.97,31.6,17.91c1.04.48,1.82,1.33,2.19,2.4.32.93.45,2.38-.72,4.02-1.25,1.74-3.16,2.92-5,4.06-.95.59-2.14,1.32-2.58,1.8-.2.21-.41.4-.65.56-60.48,41.28-130.66,61.85-200.74,61.85ZM396.38,712.53c1.42,1.07,3.18,2.37,5.28,3.9,118.39,86.21,279.33,88.63,400.58,6.08.93-.9,2.07-1.65,3.21-2.37l-29.04-16.46c-1.16-.66-1.9-1.86-1.96-3.19l-1.38-27.9c-.51.38-1,.75-1.44,1.08-1.32,1-2.56,1.94-3.6,2.62-50.73,33.01-108.87,49.71-168.11,48.28-58.99-1.41-116.36-20.69-165.91-55.75-.28-.2-.84-.64-1.54-1.2-.17-.13-.38-.31-.62-.5l-5.18,30.62c-.22,1.31-1.09,2.41-2.31,2.93l-27.97,11.86ZM388.45,707.45c-.09.03-.19.07-.29.12l.29-.12Z"/>
  <g>
    <path d="M451.13,709.41c.91-1.63,1.32-3.28,1.22-4.9-.1-1.62-.67-3.16-1.69-4.58-.99-1.38-2.4-2.58-4.19-3.58l-4.63-2.58s-.03-.02-.04-.02l-2.25-1.25c-.23-.13-.51-.16-.76-.09-.25.07-.47.24-.6.47l-12.78,22.98c-.27.48-.09,1.08.39,1.35l3.87,2.16c.15.08.32.13.48.13.09,0,.18-.01.27-.04.25-.07.47-.24.6-.47l4.36-7.83,2.18,1.21c1.78.99,3.55,1.56,5.25,1.67,1.73.12,3.36-.21,4.79-1,1.44-.78,2.62-2.01,3.53-3.63ZM443.6,701.5c1.13.63,1.9,1.39,2.27,2.25.34.78.24,1.62-.28,2.57-.53.95-1.2,1.48-2.05,1.62-.93.15-1.98-.1-3.11-.72l-2.18-1.22,3.18-5.71,2.18,1.22Z"/>
    <path d="M471.67,713.85c-.21-1.61-.87-3.12-1.97-4.47-1.08-1.33-2.56-2.45-4.4-3.32l-3.3-1.57s-.02,0-.03-.01l-4-1.9c-.24-.11-.51-.13-.76-.04-.25.09-.45.27-.56.51l-11.28,23.75c-.11.24-.13.51-.04.76.09.25.27.45.51.56l4,1.9c.5.23,1.09.03,1.32-.47l3.85-8.09,1.07.51,1.66,11.32c.05.33.26.61.56.75l4.82,2.29c.14.06.28.1.43.1.21,0,.43-.07.6-.2.3-.23.44-.6.38-.96l-1.99-11.33c.09,0,.16,0,.27,0,1.75,0,3.34-.45,4.72-1.32,1.39-.87,2.49-2.16,3.27-3.82.79-1.66,1.09-3.32.88-4.94ZM462.63,711.23c.77.37,1.39.82,1.83,1.35.42.5.66,1.03.74,1.62.08.57-.05,1.21-.37,1.88-.32.67-.72,1.15-1.23,1.46-.51.32-1.01.49-1.73.46-.69,0-1.43-.2-2.2-.56l-2.26-1.07,2.95-6.21,2.26,1.07Z"/>
    <path d="M493.93,718.79c-1.39-1.31-3.09-2.35-5.04-3.1-1.92-.73-3.87-1.09-5.77-1.05-1.92.04-3.75.43-5.46,1.16-1.71.74-3.24,1.82-4.56,3.22-1.31,1.39-2.35,3.08-3.1,5.04-.74,1.93-1.11,3.89-1.07,5.82.03,1.93.42,3.78,1.17,5.47.74,1.7,1.84,3.23,3.25,4.56,1.41,1.33,3.1,2.38,5.04,3.12,1.84.71,3.7,1.07,5.51,1.07.11,0,.23,0,.34,0,1.92-.05,3.76-.46,5.46-1.21s3.23-1.86,4.55-3.27c1.31-1.41,2.36-3.11,3.1-5.04.75-1.96,1.12-3.92,1.08-5.83-.04-1.91-.46-3.74-1.23-5.44-.77-1.69-1.87-3.21-3.25-4.52ZM486.64,721.5c1.48.57,2.66,1.41,3.51,2.49.84,1.08,1.36,2.34,1.53,3.74.17,1.42-.04,2.91-.62,4.43-.58,1.52-1.43,2.76-2.52,3.7-1.09.94-2.29,1.51-3.66,1.75-1.35.24-2.78.07-4.23-.49-1.44-.55-2.6-1.38-3.46-2.47-.86-1.08-1.38-2.35-1.56-3.75,0,0,0,0,0,0-.18-1.42.02-2.91.61-4.43.58-1.52,1.43-2.76,2.52-3.7,1.09-.94,2.29-1.5,3.68-1.74.4-.07.81-.1,1.22-.1.98,0,1.99.2,3,.59Z"/>
    <path d="M530.66,738.67c.48-1.8.46-3.49-.03-5.05-.5-1.55-1.43-2.9-2.77-4.02-1.3-1.09-2.97-1.91-4.94-2.43l-3.34-.88s-.02,0-.03-.01l-4.29-1.13c-.54-.14-1.07.18-1.21.71l-6.72,25.42c-.07.26-.03.53.1.75s.35.39.61.46l4.29,1.13c.09.02.17.03.25.03.44,0,.84-.3.96-.74l2.29-8.66,2.42.64c1.97.52,3.82.63,5.5.33,1.72-.31,3.2-1.04,4.4-2.15,1.2-1.11,2.05-2.59,2.52-4.39ZM524.16,734.48c.52.68.64,1.51.36,2.56-.28,1.05-.8,1.73-1.59,2.07-.87.37-1.94.4-3.19.06l-2.42-.64,1.67-6.32,2.41.64c1.25.33,2.18.88,2.75,1.62Z"/>
    <path d="M543.94,731.09c-.09-.38-.39-.67-.77-.74-.38-.07-.77.08-1,.39l-18.02,24.72c-.2.27-.25.63-.12.95.12.32.4.55.73.61l4.9.98c.38.08.78-.08,1.01-.4l3.89-5.52,8.24,1.64,1.49,6.59c.09.38.39.68.78.76l4.9.97c.06.01.13.02.19.02.27,0,.53-.11.72-.31.24-.24.33-.59.25-.92l-7.18-29.73ZM540.75,742.53l1.08,5.12-4.04-.8,2.96-4.32Z"/>
    <path d="M571.12,741.42l.57-4.06c.04-.26-.03-.53-.19-.74-.16-.21-.4-.35-.66-.39l-18.16-2.53c-.53-.07-1.04.3-1.12.85l-.57,4.05c-.08.54.3,1.05.85,1.12l5.86.82-2.93,21c-.08.54.3,1.05.85,1.12l4.43.62s.09,0,.14,0c.21,0,.43-.07.6-.2.21-.16.35-.39.39-.66l2.93-21,5.9.82c.54.07,1.05-.3,1.12-.85Z"/>
    <path d="M585.26,754.8c.09-.03.17-.06.26-.09,1.63-.63,2.96-1.61,3.94-2.92.98-1.31,1.55-2.9,1.69-4.73.14-1.83-.17-3.49-.94-4.93-.77-1.43-1.92-2.6-3.44-3.48-1.48-.86-3.26-1.37-5.3-1.53l-3.63-.29s-.02,0-.04,0l-4.42-.35c-.52-.06-1.03.37-1.07.91l-2.05,26.22c-.02.26.06.52.24.72.17.2.42.32.68.34l4.42.35c.54.06,1.03-.36,1.07-.91l.7-8.93,1.18.09,5.59,9.98c.16.29.46.48.79.5l5.32.42s.05,0,.08,0c.34,0,.66-.18.84-.47.2-.32.2-.71,0-1.03l-5.91-9.87ZM584.29,744.76c.28.51.39,1.14.33,1.89-.06.73-.26,1.32-.62,1.8-.36.48-.83.82-1.45,1.04-.65.24-1.42.32-2.26.26l-2.49-.2.54-6.86,2.49.19c.85.07,1.59.27,2.19.61.57.32.99.73,1.27,1.25Z"/>
    <path d="M599.6,738.06l-4.47-.13s-.02,0-.03,0c-.54,0-.98.43-.99.96l-.8,26.28c0,.26.09.52.27.71.18.19.43.3.69.31l4.47.14s.02,0,.03,0c.54,0,.98-.43.99-.96l.8-26.28c0-.26-.09-.52-.27-.71-.18-.19-.43-.3-.69-.31Z"/>
    <path d="M615.77,737.15c-.17-.35-.54-.62-.92-.56-.39,0-.73.24-.89.6l-12.22,28.04c-.14.31-.1.67.09.95.19.28.5.44.83.44,0,0,.02,0,.02,0l5-.11c.39,0,.74-.25.9-.61l2.59-6.23,8.4-.19,2.89,6.11c.17.35.56.6.92.57l5-.11c.34,0,.65-.19.83-.48.17-.29.19-.65.04-.95l-13.47-27.46ZM617.3,753.78l-4.11.09,1.95-4.86,2.16,4.77Z"/>
    <path d="M660.3,750.81c-.55-.9-1.25-1.67-2.07-2.29-.79-.6-1.66-1.09-2.58-1.45-.87-.34-1.75-.61-2.61-.79-1.4-.31-2.55-.64-3.43-.98-.79-.31-1.39-.66-1.76-1.04-.32-.33-.51-.7-.56-1.16-.06-.48.07-.9.4-1.32.33-.42.98-.69,1.93-.81.71-.09,1.33-.04,1.89.16.58.21,1.1.52,1.58.94.5.44.93.93,1.28,1.46.15.23.39.38.66.43.27.05.54-.02.76-.18l3.32-2.46c.42-.31.53-.9.24-1.34-.61-.94-1.41-1.83-2.37-2.63-.98-.82-2.15-1.47-3.47-1.91-1.35-.45-2.88-.57-4.57-.36-1.7.21-3.22.74-4.49,1.55-1.3.83-2.3,1.92-2.96,3.21-.68,1.32-.92,2.8-.72,4.39.17,1.38.61,2.55,1.28,3.48.65.9,1.44,1.64,2.34,2.2.86.53,1.75.96,2.66,1.27.88.3,1.69.52,2.37.67,1.1.25,2.08.52,2.94.82.74.26,1.34.6,1.78,1.02.38.36.61.9.7,1.65.09.73-.08,1.32-.56,1.85-.5.56-1.21.89-2.17,1.01-.83.11-1.6.03-2.3-.22-.72-.26-1.42-.7-2.08-1.28-.7-.63-1.39-1.39-2.04-2.25-.17-.22-.42-.36-.7-.39-.27-.03-.55.06-.76.25l-2.99,2.69c-.36.33-.44.87-.17,1.28.77,1.2,1.76,2.3,2.93,3.26,1.19.97,2.55,1.71,4.04,2.19,1.06.34,2.17.51,3.31.51.49,0,.99-.03,1.5-.1,1.22-.15,2.39-.5,3.48-1.04,1.08-.54,2.04-1.24,2.86-2.08.83-.86,1.46-1.89,1.86-3.06.4-1.17.51-2.45.34-3.81-.16-1.28-.53-2.39-1.09-3.31Z"/>
    <path d="M681.6,752.75l-10.46,1.99-1.17-6.16,9.72-1.86c.26-.05.49-.2.64-.42s.21-.49.16-.75l-.72-3.76c-.1-.54-.64-.9-1.16-.79l-9.72,1.85-.82-4.32,10.46-1.99c.54-.1.89-.62.79-1.16l-.73-3.84c-.05-.26-.2-.49-.42-.64-.22-.15-.5-.21-.75-.15l-11.42,2.18s-.01,0-.02,0l-1.59.3s0,0-.01,0l-2.68.51c-.54.1-.89.62-.79,1.16l4.92,25.83c.05.26.2.49.42.64.17.11.36.17.56.17.06,0,.12,0,.19-.02l2.66-.51s.02,0,.03,0l13.03-2.48c.26-.05.49-.2.64-.42.15-.22.21-.49.16-.74l-.73-3.84c-.1-.54-.64-.89-1.16-.79Z"/>
    <path d="M705.61,722.98c-.16-.39-.49-.63-.98-.61-.42.02-.78.31-.9.72l-5.29,18.48-13.9-13.25c-.3-.29-.76-.36-1.14-.17-.38.19-.59.6-.53,1.02l3.78,27.59c.04.28.2.54.44.69.17.11.35.17.55.17.09,0,.17-.01.26-.04l4.42-1.2c.49-.13.8-.61.72-1.11l-2.01-12.98,9.15,8.91c.25.25.61.34.95.25.34-.09.6-.36.7-.7l3.37-12.33,4.88,12.2c.19.47.69.72,1.18.59l4.42-1.2c.27-.07.5-.27.63-.52.13-.26.13-.56.02-.82l-10.74-25.69Z"/>
    <path d="M728.95,719.72c-1.29-.99-2.82-1.58-4.56-1.75-1.69-.16-3.53.11-5.45.8l-3.27,1.17s-.01,0-.02,0l-4.17,1.49c-.52.19-.79.75-.6,1.27l8.86,24.75c.14.41.53.66.94.66.11,0,.22-.02.34-.06l4.17-1.49c.25-.09.45-.27.56-.51.11-.24.13-.51.04-.76l-3.02-8.44,2.35-.84c1.92-.69,3.51-1.65,4.71-2.84,1.24-1.23,2.05-2.67,2.41-4.27.36-1.6.22-3.29-.41-5.05-.62-1.75-1.59-3.14-2.88-4.15ZM724.11,724.1c.81.26,1.38.89,1.75,1.91.37,1.03.32,1.88-.14,2.61-.5.8-1.38,1.43-2.59,1.86l-2.35.84-2.21-6.16,2.36-.84c1.21-.44,2.29-.51,3.18-.22Z"/>
    <path d="M756.05,728.96c-.22-.5-.81-.74-1.31-.52l-9.78,4.21-2.48-5.76,9.09-3.92c.5-.22.74-.8.52-1.31l-1.51-3.52c-.1-.24-.3-.43-.54-.53-.25-.1-.52-.09-.76.01l-9.09,3.91-1.74-4.04,9.78-4.21c.5-.22.74-.8.52-1.31l-1.54-3.59c-.22-.5-.8-.74-1.31-.52l-12.18,5.24-2.52,1.08c-.24.1-.43.3-.53.54-.1.25-.09.52.01.76l10.4,24.15c.16.38.53.6.91.6.13,0,.27-.03.39-.08l4-1.72s.02,0,.03-.01l10.67-4.59c.24-.1.43-.3.53-.55.1-.24.09-.52-.01-.76l-1.54-3.59Z"/>
    <path d="M780.06,720.65l-10.19-5.35c.06-.07.11-.14.17-.21,1.07-1.39,1.69-2.92,1.84-4.55.16-1.63-.19-3.29-1.02-4.92-.83-1.64-1.97-2.89-3.37-3.71-1.4-.82-3-1.22-4.74-1.18-1.71.04-3.5.53-5.32,1.46l-3.27,1.66s0,0-.02,0l-3.95,2.01c-.24.12-.41.33-.5.58s-.06.52.06.76l11.91,23.44c.17.34.52.54.89.54.15,0,.31-.04.45-.11l3.95-2.01c.49-.25.69-.85.44-1.34l-4.06-7.99,1.05-.54,9.97,5.6c.29.16.64.17.94.02l4.76-2.42c.33-.17.54-.51.54-.88,0-.37-.2-.71-.53-.89ZM762.08,706.84c.63-.03,1.22.1,1.73.4.51.29.92.76,1.27,1.44.33.66.47,1.27.41,1.87-.06.6-.29,1.14-.69,1.65-.43.54-1.03,1.01-1.79,1.4l-2.23,1.13-3.11-6.13,2.23-1.13c.76-.39,1.49-.59,2.19-.62Z"/>
  </g>
  <g>
    <path d="M683.84,510.39l4.34.55c35.01,6.09,47.97,50.77,20.92,74.99-24.93,22.33-64.45,7.47-69.77-25.37l-.55-4.41c.08-1.78-.1-3.61,0-5.38,1.23-21.38,18.71-39.13,39.76-40.38h5.3ZM678.71,531.42v-15.65c-6.05,2.13-9.44,8.38-11.76,14.04.1.2.26.19.42.25.83.29,2.85.52,3.83.66,2.49.35,5.02.42,7.51.7ZM683.68,531.42c2.5-.27,5.02-.34,7.51-.7.97-.14,3-.37,3.83-.66.17-.06.32-.05.42-.25-2.32-5.66-5.72-11.92-11.76-14.04v15.65ZM667.61,518.13c-3.77,1.32-7.49,3.59-10.51,6.23-.28.24-1.93,1.59-1.74,1.84l6.63,2.45,3.17-6.71,2.45-3.82ZM707.04,526.2c.19-.27-1.62-1.76-1.91-2.01-2.97-2.55-6.67-4.78-10.35-6.06l3.51,5.78,2.12,4.75,6.63-2.45ZM643.92,550.94h14.08c.04-5.91.99-11.8,2.49-17.5-3.02-.83-5.94-2.05-8.7-3.51-4.6,5.93-7.58,13.42-7.86,21.01ZM718.47,550.94c-.27-7.6-3.29-15.07-7.86-21.01-2.77,1.45-5.67,2.72-8.7,3.51,1.48,5.7,2.45,11.59,2.49,17.5h14.08ZM678.71,536.47c-2.17-.24-4.35-.28-6.52-.53-2.31-.27-4.59-.77-6.88-1.14-1.46,5.23-2.26,10.69-2.33,16.14h15.74v-14.47ZM683.68,536.47v14.47h15.74c-.06-5.45-.9-10.9-2.33-16.15-2.28.41-4.58.89-6.89,1.15-2.17.25-4.36.29-6.52.53ZM658,555.99h-14.08c.27,7.6,3.29,15.08,7.86,21.01,2.76-1.46,5.68-2.68,8.7-3.51-1.5-5.69-2.45-11.58-2.49-17.5ZM678.71,555.99h-15.74c.06,5.45.9,10.9,2.33,16.15,4.42-.93,8.91-1.4,13.41-1.68v-14.47ZM699.42,555.99h-15.74v14.47c4.5.29,9,.74,13.41,1.68,1.43-5.24,2.27-10.69,2.33-16.15ZM718.47,555.99h-14.08c-.04,5.91-1,11.8-2.49,17.5,3.03.79,5.94,2.05,8.7,3.51,4.58-5.94,7.59-13.41,7.86-21.01ZM678.71,575.5c-2.5.26-5.02.34-7.51.7-.98.14-2.99.36-3.83.66-.17.06-.32.05-.42.25,2.32,5.66,5.72,11.92,11.76,14.04v-15.65ZM683.68,591.15c6.05-2.12,9.43-8.39,11.76-14.04-.1-.2-.26-.19-.42-.25-.83-.29-2.85-.52-3.83-.66-2.49-.36-5.01-.44-7.51-.7v15.65ZM667.61,588.79l-2.45-3.82-3.17-6.71-6.63,2.45c-.18.25,1.47,1.6,1.74,1.84,3.03,2.64,6.74,4.91,10.51,6.23ZM707.04,580.72l-6.63-2.45-2.12,4.75-3.51,5.78c3.68-1.28,7.38-3.51,10.35-6.06.29-.25,2.1-1.74,1.91-2.01Z"/>
    <path d="M627.68,547.78l.43.68c-.37,2.57-.37,5.14-.23,7.73l-.49.63c.46,10.72,3.08,18.87,9.16,27.7l.84.31c1.3,1.88,2.7,3.68,4.29,5.32l.16.9c6.34,6.37,13.7,10.62,22.16,13.64,1.62,1.63.22,4.16-2.04,3.77-2.07-.36-6.31-2.38-8.31-3.39-7.15-3.6-14.93-9.87-19.68-16.32-.19-.03-.37-.07-.53-.15-.84-.37-3.91-5.67-4.45-6.89l.05-1.01c-2.35-4.52-3.81-8.78-4.84-13.74-.98-1.05-2.07-6.22-1.63-7.31.08-.18.18-.36.3-.52-.42-5.55.09-11.05,1.27-16.46l-.37-.4c.67-2.29,1.28-4.59,1.85-6.91l.54-.32c1.76-3.88,3.47-7.73,5.86-11.27-.03-.19-.05-.38-.03-.57.09-1.07,3.74-5.75,5.09-6.1.85-.97,4.68-4.87,5.66-5.03,1.83-.29,2.92,1.3,2.42,3.01-.23.78-3.27,3.32-4.07,4.21-7.47,8.27-11.82,17.43-13.38,28.51Z"/>
    <path d="M622.85,559.11c.2,2.6.8,5.29,1.33,7.83-6.56-.49-11.71-6.56-11.35-13.1,3.98.15,7.63,2.13,10.02,5.27Z"/>
    <path d="M637.05,517.08c-1.76,2-3.57,4.46-5.06,6.67-3.53-4.54-3.24-11.24.38-15.67,1.15-1.41,1.39-1.74,2.5-.15,1.83,2.62,2.45,5.99,2.18,9.16Z"/>
    <path d="M626.14,535.02c0,1.57-1.59,5.67-2.02,7.63-5.72-3.29-7.51-10.31-5.2-16.34,3.06.53,7.22,5.75,7.22,8.71Z"/>
    <path d="M627.68,547.78l1.79-1.7c2.05-1.39,4.44-3.02,7.02-2.92.74,5.97-3.2,12.2-9.1,13.65-.16-3.63-.22-5.37.29-9.03Z"/>
    <path d="M629.41,581.39c1.21,2.52,2.87,4.99,4.39,7.34-6.77,2.07-14.3-2-16.49-8.7,4.05-1.41,8.48-.85,12.1,1.37Z"/>
    <path d="M636.38,584.35l.22-2.45c.62-2.39,1.34-5.2,3.34-6.83,4.5,4,5.65,11.28,2.17,16.26-2.51-2.62-3.71-3.89-5.74-6.98Z"/>
    <g>
      <path d="M734.68,547.78l-.43.68c.37,2.57.37,5.14.23,7.73l.49.63c-.46,10.72-3.08,18.87-9.16,27.7l-.84.31c-1.3,1.88-2.7,3.68-4.29,5.32l-.16.9c-6.34,6.37-13.7,10.62-22.16,13.64-1.62,1.63-.22,4.16,2.04,3.77,2.07-.36,6.31-2.38,8.31-3.39,7.15-3.6,14.93-9.87,19.68-16.32.19-.03.37-.07.53-.15.84-.37,3.91-5.67,4.45-6.89l-.05-1.01c2.35-4.52,3.81-8.78,4.84-13.74.98-1.05,2.07-6.22,1.63-7.31-.08-.18-.18-.36-.3-.52.42-5.55-.09-11.05-1.27-16.46l.37-.4c-.67-2.29-1.28-4.59-1.85-6.91l-.54-.32c-1.76-3.88-3.47-7.73-5.86-11.27.03-.19.05-.38.03-.57-.09-1.07-3.74-5.75-5.09-6.1-.85-.97-4.68-4.87-5.66-5.03-1.83-.29-2.92,1.3-2.42,3.01.23.78,3.27,3.32,4.07,4.21,7.47,8.27,11.82,17.43,13.38,28.51Z"/>
      <path d="M739.51,559.11c-.2,2.6-.8,5.29-1.33,7.83,6.56-.49,11.71-6.56,11.35-13.1-3.98.15-7.63,2.13-10.02,5.27Z"/>
      <path d="M725.31,517.08c1.76,2,3.57,4.46,5.06,6.67,3.53-4.54,3.24-11.24-.38-15.67-1.15-1.41-1.39-1.74-2.5-.15-1.83,2.62-2.45,5.99-2.18,9.16Z"/>
      <path d="M736.23,535.02c0,1.57,1.59,5.67,2.02,7.63,5.72-3.29,7.51-10.31,5.2-16.34-3.06.53-7.22,5.75-7.22,8.71Z"/>
      <path d="M734.68,547.78l-1.79-1.7c-2.05-1.39-4.44-3.02-7.02-2.92-.74,5.97,3.2,12.2,9.1,13.65.16-3.63.22-5.37-.29-9.03Z"/>
      <path d="M732.96,581.39c-1.21,2.52-2.87,4.99-4.39,7.34,6.77,2.07,14.3-2,16.49-8.7-4.05-1.41-8.48-.85-12.1,1.37Z"/>
      <path d="M725.98,584.35l-.22-2.45c-.62-2.39-1.34-5.2-3.34-6.83-4.5,4-5.65,11.28-2.17,16.26,2.51-2.62,3.71-3.89,5.74-6.98Z"/>
    </g>
  </g>
  <path d="M414.64,257.48c-7.35-.05-13.36,5.86-13.41,13.22l-1.82,245.96c-.74,100.25,87.34,182.47,196.34,183.28,109,.8,198.28-80.11,199.02-180.36l1.81-245.69c.06-7.5-5.98-13.63-13.48-13.68l-368.46-2.72ZM778.95,515.2c-.68,92.21-82.8,166.64-183.06,165.89-100.26-.74-181.28-76.37-180.6-168.58l1.7-230.71c.03-4.29,3.54-7.75,7.83-7.72l348.11,2.57c4.29.03,7.75,3.54,7.72,7.83l-1.7,230.71Z"/>
  <path d="M597.82,211.63c54.61,0,103.75,8.34,138.12,21.64l4.35-11.15c-34.49-14.31-85.52-23.38-142.47-23.38s-104.65,8.48-139.05,22c-.3.16-.61.32-.91.48l4.4,11.07c34.22-12.73,82.3-20.66,135.56-20.66Z"/>
  <g>
    <g>
      <path d="M359.49,539.36c-17.99,4.39-29.56,19.3-33.27,36.59-.37-2.22-1.32-4.31-2.77-6.04.29-.08.58-.18.86-.29,2.2-.88,3.93-2.58,4.85-4.8,1.88-4.49-.18-9.73-4.58-11.68-2.14-.95-4.52-1-6.7-.13-2.2.88-3.93,2.58-4.85,4.8-1.09,2.61-.84,5.46.41,7.79-1.22.08-2.43.35-3.61.82-3.05,1.21-5.43,3.57-6.72,6.64-1.19,2.85-1.23,5.92-.35,8.68-13.84-6.54-29-8.92-43.15-.66,33.27,87.13,129.93,44.7,99.87-41.71ZM354.89,550.32c5.51,18.06,3.26,38.53-7.42,54.11-1.17,1.71-6.74,9.97-9.09,8.03-9.54-21.69-7.68-52.53,16.51-62.14ZM318.41,560.05c.32-.76.89-1.33,1.63-1.63.33-.13.68-.2,1.03-.2.39,0,.78.08,1.14.24h0c1.53.68,2.23,2.52,1.57,4.1-.32.76-.9,1.34-1.63,1.63-.71.28-1.48.26-2.18-.05-1.53-.68-2.23-2.52-1.57-4.1ZM308.49,575.3c.67-1.61,1.91-2.84,3.49-3.47.73-.29,1.49-.43,2.25-.43.84,0,1.68.18,2.48.53,3.23,1.43,4.73,5.31,3.34,8.64-.67,1.61-1.91,2.84-3.49,3.47-1.53.61-3.21.58-4.73-.1-3.23-1.43-4.73-5.31-3.34-8.64ZM318.71,589.45c2.83-1.13,5.07-3.25,6.41-6-.34,4.27-.23,8.62.38,12.92-2.71-2.17-5.58-4.33-8.56-6.38.6-.14,1.19-.31,1.78-.54ZM268.92,584.99c25.77-5.46,48.89,11.97,63.75,32.07-26.07,14.26-52.24-8.89-63.75-32.07Z"/>
      <path d="M315.33,629.34c-20.57,0-42.96-13.84-56.06-48.15-.06-.17,0-.35.16-.45,12.32-7.19,26.7-7.08,42.77.31-.69-2.72-.49-5.58.58-8.15,1.32-3.16,3.78-5.59,6.92-6.84,1.02-.4,2.08-.67,3.18-.79-1.13-2.41-1.2-5.16-.18-7.61.96-2.31,2.76-4.08,5.06-4.99,2.27-.9,4.74-.85,6.98.14,4.21,1.87,6.35,6.61,5.17,10.99,5.95-12.65,16.42-21.6,29.5-24.79.18-.04.37.06.43.23,15.57,44.76-2.68,77.81-28.76,87.32-4.98,1.82-10.3,2.79-15.74,2.79ZM260.07,581.22c16.42,42.68,47.35,53.19,70.75,44.65,25.68-9.37,43.65-41.93,28.43-86.08-16.5,4.16-28.7,17.68-32.68,36.23-.04.17-.19.29-.36.29h0c-.17,0-.32-.13-.35-.31-.36-2.17-1.29-4.19-2.69-5.86-.08-.09-.11-.22-.07-.34.04-.12.13-.21.25-.24.28-.08.55-.17.82-.28,2.11-.84,3.77-2.47,4.65-4.6,1.8-4.31-.17-9.33-4.4-11.21-2.06-.91-4.33-.96-6.41-.13-2.11.84-3.77,2.47-4.65,4.6-1.01,2.42-.87,5.14.39,7.47.06.11.06.24,0,.35-.06.11-.17.18-.29.19-1.21.08-2.38.35-3.5.79-2.96,1.18-5.27,3.47-6.52,6.44-1.11,2.65-1.23,5.64-.33,8.42.04.14,0,.29-.11.39-.11.09-.27.12-.4.06-16.01-7.56-30.32-7.84-42.55-.83ZM324.07,570.1c.97,1.26,1.7,2.69,2.15,4.22.67-2.77,1.53-5.43,2.56-7.96-1.03,1.63-2.52,2.88-4.33,3.6-.12.05-.25.1-.37.14ZM316.13,621.82c-3.55,0-7.15-.57-10.78-1.71-16.96-5.33-30.11-21.55-36.76-34.95-.05-.1-.05-.22,0-.32s.14-.17.25-.2c12.02-2.55,24.2-.36,36.22,6.49,10.04,5.72,19.69,14.62,27.9,25.72.06.08.09.19.06.3-.02.1-.09.19-.18.24-5.4,2.96-10.99,4.44-16.71,4.44ZM269.45,585.25c10.05,19.96,25.22,30.73,36.11,34.16,9.15,2.88,18.09,2.05,26.56-2.47-25.71-34.55-52.05-33.81-62.67-31.69ZM339.2,613.12c-.4,0-.75-.13-1.06-.38-.04-.04-.08-.08-.1-.13-6.39-14.52-7.16-31.33-2.02-43.88,3.62-8.84,10.1-15.32,18.73-18.75.1-.04.2-.03.29.01.09.04.16.12.19.22,5.75,18.86,2.96,39.2-7.47,54.42l-.08.12c-3.66,5.35-6.34,8.08-8.2,8.34-.1.01-.2.02-.29.02ZM338.67,612.23c.2.14.44.19.72.15,1.11-.16,3.35-1.68,7.7-8.03l.08-.12c10.24-14.93,13.02-34.87,7.49-53.42-8.37,3.43-14.41,9.56-17.96,18.2-5.06,12.34-4.3,28.89,1.98,43.22ZM325.5,596.74c-.08,0-.16-.03-.23-.08-2.85-2.29-5.73-4.43-8.54-6.37-.12-.08-.18-.23-.15-.37.03-.14.14-.25.28-.29.65-.15,1.21-.32,1.73-.52h0c2.71-1.08,4.92-3.14,6.22-5.82.08-.16.25-.24.43-.19.17.05.28.21.27.38-.35,4.31-.22,8.63.37,12.84.02.15-.05.29-.18.37-.06.03-.12.05-.18.05ZM317.8,590.15c2.39,1.66,4.81,3.47,7.22,5.38-.43-3.46-.55-6.98-.36-10.5-1.41,2.15-3.42,3.82-5.8,4.76h0c-.33.13-.68.25-1.05.36ZM318.72,589.45h0,0ZM314.31,584.83c-.89,0-1.78-.19-2.63-.56-3.41-1.51-4.99-5.6-3.53-9.11h0c.71-1.7,2.02-3,3.69-3.67,1.62-.64,3.41-.61,5.01.1,3.41,1.51,4.99,5.6,3.52,9.11-.71,1.7-2.02,3-3.69,3.67-.77.31-1.58.46-2.38.46ZM314.23,571.76c-.72,0-1.43.14-2.11.41-1.49.59-2.66,1.75-3.29,3.27h0c-1.32,3.15.1,6.81,3.15,8.17,1.43.63,3,.67,4.44.09,1.49-.59,2.66-1.76,3.29-3.27,1.32-3.15-.09-6.81-3.15-8.17-.75-.33-1.53-.5-2.33-.5ZM308.49,575.3h0,0ZM321.12,564.77c-.44,0-.88-.09-1.29-.28-1.71-.76-2.49-2.81-1.76-4.58.35-.85,1-1.5,1.83-1.82.78-.31,1.66-.3,2.44.04,0,0,.02,0,.02,0,1.71.76,2.49,2.81,1.76,4.58-.35.85-1,1.5-1.83,1.83-.38.15-.77.22-1.17.22ZM321.07,558.59c-.31,0-.61.06-.9.17-.64.26-1.15.76-1.43,1.43h0c-.59,1.4.03,3.03,1.38,3.63.61.27,1.28.28,1.89.04.65-.26,1.15-.76,1.43-1.43.58-1.4-.03-3.02-1.36-3.62,0,0-.01,0-.02,0-.32-.14-.65-.21-1-.21ZM318.41,560.05h0,0Z"/>
    </g>
    <g>
      <path d="M387.44,591.15c-14.08,8.84-21.8,22.84-23.18,38.21-2.08-3.01-5.42-5.07-9.29-5.27-3.18-.17-6.25.93-8.64,3.08-1.02.92-1.85,1.99-2.5,3.16-1.51-2.07-3.87-3.46-6.58-3.61-2.31-.12-4.53.67-6.25,2.23-1.77,1.6-2.82,3.82-2.93,6.24-.2,4.28,2.61,8.03,6.53,9.08-12.49-1.34-24.83.95-35.04,10.12,51.35,78.62,138.29,12.81,87.88-63.23ZM364.66,643.01c.56,3.83,1.48,7.67,2.77,11.47-4.33-2.06-8.91-4.01-13.62-5.66.2,0,.4.02.6.02,2.95,0,5.77-1.09,8-3.1.89-.81,1.64-1.73,2.25-2.73ZM350.25,631.49c1.14-1.03,2.59-1.59,4.09-1.59.11,0,.22,0,.32,0h0c3.47.18,6.15,3.28,5.98,6.89-.08,1.8-.85,3.43-2.15,4.61-1.23,1.11-2.8,1.67-4.42,1.58-3.47-.18-6.15-3.28-5.98-6.89.08-1.8.85-3.43,2.15-4.61ZM334.91,633.27c.53-.48,1.19-.74,1.89-.74.05,0,.1,0,.15,0h0c1.62.09,2.87,1.55,2.79,3.26-.04.86-.4,1.63-1.02,2.19-.57.51-1.28.77-2.04.73-1.62-.09-2.87-1.55-2.79-3.26.04-.86.4-1.63,1.02-2.19ZM342.63,642.31c.26-.24.5-.49.73-.75,1,2.22,2.61,4.11,4.64,5.4-3.66-1.05-7.36-1.88-11.07-2.41,2.1-.02,4.11-.81,5.69-2.24ZM310.24,655.67c23.61-10.11,50.94,1.01,68.49,18.32-22.57,17.98-53.93,3.35-68.49-18.32ZM385.19,666.63c-18.06-15.59-18.93-49.81,1.02-64.37,9.74,19.58,12.61,46.07-1.02,64.37Z"/>
      <path d="M354.1,690.24c-12.89,0-34.98-5.26-54.85-35.66-.1-.15-.07-.35.06-.47,8.73-7.84,19.82-11.33,32.99-10.41-2.92-1.71-4.77-4.99-4.6-8.53.12-2.51,1.2-4.82,3.05-6.49,1.8-1.63,4.13-2.46,6.52-2.32,2.54.13,4.89,1.34,6.52,3.32.64-1.04,1.41-1.97,2.3-2.78,2.46-2.23,5.63-3.36,8.9-3.18,3.53.19,6.76,1.87,9,4.66,1.69-15.87,9.93-29.18,23.26-37.54.17-.11.39-.06.5.11,23.29,35.14,14.25,62.02,9.28,71.95-8.05,16.09-23.11,26.29-40.27,27.27-.84.05-1.72.08-2.66.08ZM300.04,654.44c15.62,23.77,35.72,36.19,56.68,35,16.9-.97,31.72-11.01,39.66-26.87,4.9-9.79,13.79-36.25-9.04-70.92-13.22,8.42-21.28,21.81-22.71,37.74-.01.15-.12.28-.27.32-.15.04-.31-.02-.39-.15-2.11-3.06-5.39-4.92-9.01-5.12-3.11-.16-6.06.89-8.37,2.99-.96.87-1.78,1.9-2.42,3.06-.06.11-.17.18-.3.19-.14.02-.24-.05-.32-.15-1.51-2.06-3.81-3.32-6.31-3.46-2.21-.11-4.34.64-5.99,2.14-1.7,1.54-2.7,3.66-2.81,5.98-.19,4.02,2.44,7.69,6.26,8.71.18.05.3.23.26.42-.03.19-.22.31-.4.3-13.88-1.49-25.48,1.82-34.53,9.82ZM355.6,682.44c-2.12,0-4.28-.17-6.47-.51-14.93-2.31-29.95-12.29-39.19-26.06-.06-.09-.08-.2-.05-.31s.11-.19.2-.23c24.21-10.36,52.04,1.77,68.89,18.4.07.07.11.17.11.28,0,.1-.06.2-.14.27-6.77,5.39-14.75,8.16-23.36,8.16ZM310.8,655.84c9.15,13.41,23.85,23.12,38.45,25.38,10.72,1.66,20.72-.85,28.94-7.25-16.61-16.21-43.72-27.99-67.39-18.13ZM385.19,667c-.09,0-.17-.03-.24-.09-9.09-7.84-14.39-21.15-13.83-34.74.52-12.68,5.94-23.69,14.88-30.2.09-.06.19-.08.3-.06.1.03.19.1.24.19,5.13,10.3,8.07,21.96,8.29,32.82.25,12.34-2.98,23.39-9.35,31.93-.06.08-.15.13-.25.15-.01,0-.03,0-.04,0ZM386.08,602.82c-8.55,6.42-13.73,17.1-14.23,29.39-.54,13.22,4.54,26.17,13.28,33.9,8.9-12.23,14.39-35.96.95-63.28ZM367.43,654.84c-.05,0-.11-.01-.16-.04-4.65-2.22-9.22-4.12-13.58-5.65-.17-.06-.27-.24-.24-.41.03-.18.18-.29.37-.3,3.06.15,6.04-.92,8.33-2.99.84-.76,1.58-1.65,2.19-2.65.08-.13.24-.19.39-.17.15.03.26.15.29.3.55,3.82,1.48,7.66,2.76,11.41.05.14,0,.29-.1.39-.07.06-.16.09-.24.09ZM355.74,649.12c3.59,1.32,7.3,2.89,11.07,4.66-1.05-3.22-1.85-6.51-2.37-9.79-.53.74-1.13,1.41-1.79,2.01-1.94,1.76-4.36,2.84-6.91,3.12ZM348,647.33s-.07,0-.1-.01c-3.8-1.09-7.5-1.89-11.02-2.4-.19-.03-.32-.19-.31-.38.01-.19.17-.34.36-.34,2.01-.02,3.95-.78,5.45-2.15h0c.22-.2.45-.43.7-.72.08-.09.19-.14.33-.12.12.02.23.1.28.21.97,2.17,2.53,3.98,4.5,5.24.15.1.21.29.14.46-.06.13-.19.21-.33.21ZM339.33,644.57c2.25.4,4.57.91,6.93,1.53-1.23-1.08-2.24-2.4-2.99-3.89-.13.14-.26.26-.39.38-1.03.93-2.25,1.6-3.55,1.98ZM354.4,643.37c-.12,0-.23,0-.35,0-3.67-.19-6.51-3.46-6.32-7.27.09-1.89.89-3.62,2.27-4.86h0c1.29-1.17,2.93-1.78,4.68-1.68,3.67.19,6.51,3.46,6.33,7.27-.09,1.9-.9,3.62-2.27,4.86-1.21,1.09-2.74,1.69-4.33,1.69ZM350.49,631.76h0c-1.23,1.11-1.95,2.66-2.03,4.36-.16,3.42,2.36,6.34,5.63,6.51,1.55.07,3-.45,4.15-1.49,1.23-1.11,1.95-2.66,2.03-4.36.16-3.42-2.36-6.34-5.63-6.51-1.56-.07-3.01.46-4.15,1.49ZM336.84,639.09c-.06,0-.12,0-.17,0-1.82-.1-3.22-1.73-3.13-3.64.05-.95.45-1.82,1.13-2.44h0c.64-.58,1.46-.88,2.3-.83,1.82.1,3.22,1.73,3.14,3.64-.05.95-.45,1.82-1.14,2.44-.6.54-1.34.83-2.13.83ZM335.16,633.54h0c-.54.49-.86,1.18-.9,1.94-.07,1.51,1.02,2.81,2.44,2.88.65.02,1.28-.19,1.77-.64.54-.49.86-1.18.9-1.94.07-1.51-1.03-2.81-2.44-2.88h-.13c-.6,0-1.18.22-1.64.64Z"/>
    </g>
    <g>
      <path d="M280.87,560.16c41.86,8.61,66.26-37.52,58.29-74.98-12.97,1.1-24.3,7.91-31.86,17.84-1.9-2.99-5.08-5.1-8.82-5.41-3.05-.25-6.02.71-8.36,2.71-.84.72-1.56,1.55-2.16,2.45-.88-1.17-2.05-2.15-3.46-2.77-2.14-.95-4.52-1-6.7-.13-2.2.88-3.93,2.58-4.85,4.8-.56,1.33-.76,2.73-.66,4.1-9.74-5.55-20.77-8-33.18-4.95.93,21.82,20.3,51.92,41.78,56.34ZM331.24,494.61c2.82.31,1.65,10.86,1.37,13.33-1.8,16.06-11.2,35.31-26.41,41.33-3.96-23.48,1.87-45.87,25.04-54.65ZM291.81,508.95c.12-1.65.87-3.13,2.09-4.18,1.03-.88,2.31-1.36,3.64-1.36.15,0,.31,0,.46.02,2.93.24,5.18,2.73,5.33,5.71-.92,1.7-1.75,3.46-2.46,5.27-1.09.79-2.39,1.16-3.73,1.05-3.19-.26-5.58-3.18-5.33-6.51ZM278.31,506.93c.32-.76.89-1.33,1.63-1.63.33-.13.68-.2,1.03-.2.39,0,.78.08,1.14.24h0c1.53.68,2.23,2.52,1.57,4.1-.32.76-.9,1.34-1.63,1.63-.71.28-1.48.26-2.18-.05-1.53-.68-2.23-2.52-1.57-4.1ZM284.21,516.49c1.11-.44,2.09-1.09,2.92-1.91,1.74,3.67,5.28,6.34,9.53,6.69.32.03.63.04.95.04.37,0,.75-.02,1.12-.06-.8,3.47-1.24,7.06-1.25,10.74-4.29-5.49-9-10.72-14.13-15.22.29-.08.58-.18.86-.29ZM299.21,553.08c-24.95,4.61-47.44-19.04-51-43.3,23.79,1.47,42.94,21.3,51,43.3Z"/>
      <path d="M290.98,561.59c-3.19,0-6.59-.33-10.19-1.07-21.54-4.43-41.14-34.87-42.07-56.68,0-.17.11-.33.28-.37,11.24-2.77,22.3-1.2,32.88,4.67,0-1.25.24-2.45.72-3.6.96-2.31,2.76-4.08,5.05-4.99,2.27-.9,4.74-.85,6.98.14,1.27.56,2.4,1.42,3.3,2.49.57-.79,1.22-1.5,1.95-2.12,2.42-2.06,5.46-3.06,8.63-2.8,3.56.29,6.74,2.16,8.81,5.14,7.88-10.13,19.45-16.53,31.81-17.58.17-.01.35.11.39.29,4.8,22.57-2.04,47.88-17.02,62.96-6.49,6.54-16.86,13.52-31.5,13.52ZM239.46,504.11c1.09,21.53,20.33,51.35,41.48,55.7,19.81,4.07,33.25-4.41,41.03-12.25,14.75-14.85,21.52-39.72,16.9-61.98-12.2,1.13-23.59,7.56-31.28,17.67-.07.09-.21.15-.31.14-.12,0-.23-.07-.29-.17-1.93-3.04-5.04-4.95-8.54-5.24-2.95-.24-5.83.69-8.09,2.63-.8.68-1.5,1.48-2.1,2.38-.06.1-.17.16-.29.16h0c-.11,0-.22-.05-.29-.15-.87-1.16-2.02-2.08-3.32-2.66-2.06-.91-4.33-.96-6.41-.13-2.11.84-3.77,2.47-4.65,4.6-.52,1.24-.73,2.57-.64,3.93,0,.13-.06.26-.17.33-.11.07-.26.07-.37,0-10.49-5.98-21.46-7.65-32.63-4.98ZM292.86,554.03c-7.85,0-15.64-2.64-22.83-7.79-11.6-8.3-20.1-22.25-22.17-36.4-.02-.11.02-.22.09-.3.07-.08.17-.14.29-.12,24.99,1.55,43.78,22.98,51.32,43.54.04.1.03.21-.02.31s-.14.16-.25.18c-2.14.39-4.28.59-6.42.59ZM248.64,510.18c2.16,13.81,10.48,27.36,21.81,35.47,8.87,6.34,18.64,8.82,28.27,7.15-7.5-20.08-25.8-40.88-50.08-42.62ZM306.2,549.63c-.06,0-.12-.02-.18-.05-.1-.05-.16-.15-.18-.26-4.58-27.16,4.63-47.23,25.27-55.06.06-.02.12-.03.17-.02.42.05.78.26,1.08.63,1.22,1.52,1.43,5.93.62,13.1-.95,8.48-3.88,17.21-8.23,24.58-4.93,8.34-11.3,14.24-18.41,17.05-.04.02-.09.03-.13.03ZM331.28,494.98c-20.11,7.67-29.13,27.25-24.79,53.77,10.78-4.51,23.32-19.09,25.77-40.86,1.03-9.14.15-11.79-.46-12.56-.15-.19-.32-.31-.51-.35ZM297.48,532.36c-.11,0-.22-.05-.29-.14-4.66-5.96-9.4-11.06-14.08-15.17-.1-.09-.14-.22-.11-.35.03-.13.13-.23.26-.27.28-.08.55-.17.83-.28,1.06-.42,2-1.04,2.8-1.83.08-.08.2-.12.32-.1.12.02.22.1.27.2,1.75,3.67,5.28,6.16,9.23,6.48.67.05,1.35.05,2-.02.13-.01.23.03.31.12.08.09.11.21.08.32-.81,3.5-1.23,7.09-1.24,10.66,0,.15-.1.29-.25.34-.04.01-.08.02-.12.02ZM284.07,516.93c4.35,3.87,8.73,8.58,13.05,14.03.07-3.12.45-6.24,1.13-9.31-.54.03-1.08.02-1.63-.02-4.04-.33-7.68-2.79-9.6-6.45-.79.7-1.69,1.25-2.68,1.65h0c-.09.04-.18.07-.27.1ZM284.21,516.49h0,0ZM297.61,515.85c-.17,0-.34,0-.5-.02-3.39-.28-5.93-3.38-5.66-6.9.13-1.75.92-3.32,2.22-4.43,1.21-1.04,2.76-1.56,4.37-1.42,3.06.25,5.5,2.86,5.67,6.05,0,.07-.01.13-.04.19-.91,1.67-1.73,3.43-2.45,5.23-.02.06-.07.12-.12.16-1.04.75-2.22,1.14-3.47,1.14ZM292.17,508.98c-.23,3.13,2.01,5.87,5,6.12,1.22.1,2.38-.22,3.4-.92.7-1.76,1.51-3.48,2.39-5.12-.19-2.79-2.32-5.04-5-5.26-1.42-.12-2.74.33-3.83,1.25-1.15.98-1.85,2.38-1.97,3.93h0ZM281.02,511.64c-.44,0-.87-.09-1.29-.28-1.71-.76-2.5-2.81-1.76-4.58h0c.35-.85,1.01-1.5,1.83-1.82.79-.32,1.67-.3,2.46.05,1.71.76,2.5,2.81,1.76,4.58-.35.85-1.01,1.5-1.83,1.83-.38.15-.77.22-1.17.22ZM278.65,507.07h0c-.59,1.4.03,3.03,1.38,3.63.61.27,1.28.28,1.89.04.64-.26,1.15-.76,1.43-1.43.59-1.4-.03-3.03-1.38-3.63-.61-.27-1.28-.28-1.89-.04-.64.26-1.15.76-1.43,1.43Z"/>
    </g>
    <g>
      <path d="M264.54,490.68c37.91,18.79,74.4-23.94,71.32-61.73-14.02-.36-26.26,4.06-35.34,12.56.02-5.13-3.25-9.86-8.3-11.36-2.93-.87-6.04-.53-8.74.95-1.08.59-2.04,1.33-2.86,2.2-.98-2.17-2.83-3.91-5.26-4.63-2.14-.63-4.4-.39-6.36.69-2.02,1.11-3.49,2.95-4.14,5.19-.26.92-.36,1.84-.33,2.74-4.41-3.59-9.46-6.47-15.46-8.32-3.32-1.02-12.37-4.12-14.58-1.23-1.33,23.81,7.97,51.98,30.06,62.94ZM326.66,436.9c3.31.48-.65,11.89-1.48,14.48-4.93,15.28-16.88,30.94-32.79,34.07-1.28-23.78,11-43.98,34.28-48.56ZM283.37,439.88c.46-1.59,1.49-2.89,2.9-3.66.85-.46,1.78-.7,2.71-.7.53,0,1.06.08,1.58.23,3.07.91,4.81,4.26,3.88,7.47-.46,1.59-1.49,2.89-2.9,3.66-1.33.73-2.85.89-4.28.47h0c-3.07-.91-4.81-4.26-3.88-7.47ZM277.56,444.09c.86,4.1,3.84,7.59,8.05,8.84,1.07.32,2.16.47,3.25.47.91,0,1.81-.12,2.7-.33-2.09,3.76-3.79,7.92-5.05,12.47-4.34-7.02-8.64-13.98-13.72-20.04.05,0,.09.01.14.01,1.38,0,2.75-.35,4-1.03.22-.12.43-.26.64-.39ZM270.46,436.16c.21-.74.69-1.33,1.33-1.69.38-.21.79-.31,1.21-.31.23,0,.47.03.7.1,1.39.41,2.17,1.95,1.75,3.43-.21.73-.69,1.33-1.33,1.69-.59.33-1.27.4-1.91.21-1.39-.41-2.17-1.95-1.75-3.42ZM284.09,487.82c-27.32-1.53-40.7-27.3-42.39-52.65,23.37,4.74,38.86,29.66,42.39,52.65Z"/>
      <path d="M283.36,495.61c-6.38,0-12.79-1.53-18.99-4.6-10.32-5.12-18.61-14.39-23.99-26.83-4.74-10.99-6.97-23.93-6.28-36.45,0-.07.03-.14.07-.2,2.21-2.89,10.02-.45,14.2.86l.78.24c5.47,1.68,10.38,4.27,15,7.91.03-.71.15-1.41.34-2.09.68-2.33,2.21-4.25,4.31-5.41,2.05-1.13,4.41-1.38,6.64-.72,2.26.67,4.15,2.25,5.25,4.36.78-.75,1.65-1.38,2.59-1.9,2.79-1.53,6-1.87,9.02-.98,4.8,1.43,8.21,5.84,8.53,10.9,9.16-8.29,21.23-12.46,35.01-12.12.19,0,.34.15.35.33,1.8,22.1-9.75,46.22-28.1,58.67-7.86,5.33-16.29,8.02-24.75,8.02ZM234.84,427.88c-1.74,32.06,13.73,54.48,29.86,62.47h0c14.17,7.03,29.44,5.83,43-3.37,18.05-12.24,29.46-35.92,27.81-57.68-.42,0-.84-.01-1.26-.01-13.21,0-24.76,4.3-33.5,12.49-.11.1-.26.13-.39.07s-.22-.19-.22-.33c.02-5.07-3.29-9.6-8.04-11.01-2.84-.84-5.84-.52-8.46.92-1.03.56-1.96,1.28-2.77,2.13-.09.09-.22.12-.32.11-.12-.02-.22-.1-.27-.21-.98-2.16-2.81-3.78-5.03-4.43-2.04-.61-4.2-.37-6.08.66-1.93,1.06-3.34,2.82-3.96,4.97-.24.85-.35,1.73-.32,2.63,0,.14-.07.28-.2.34-.13.06-.28.05-.39-.04-4.71-3.83-9.73-6.53-15.34-8.25l-.78-.24c-3.4-1.06-11.32-3.54-13.34-1.19ZM284.09,488.19s-.01,0-.02,0c-12.68-.71-23.43-6.77-31.08-17.54-6.61-9.29-10.74-21.88-11.65-35.45,0-.11.04-.22.13-.3s.21-.1.31-.08c10.96,2.22,20.94,9.01,28.85,19.62,7.07,9.47,11.97,21.31,13.82,33.33.02.11-.02.22-.09.3-.07.08-.17.12-.27.12ZM242.1,435.63c2.59,36.35,23.87,50.6,41.56,51.8-4.85-30.5-24.8-48.15-41.56-51.8ZM292.38,485.83c-.08,0-.16-.03-.22-.08-.08-.06-.13-.16-.14-.27-1.36-25.33,12.21-44.54,34.57-48.93.04,0,.08,0,.12,0,.49.07.87.33,1.14.76,1.34,2.16-.45,8.42-2.15,13.64l-.18.55c-7.07,21.92-22.24,32.19-33.07,34.32-.02,0-.05,0-.07,0ZM326.66,437.28c-21.83,4.32-35.11,23.03-33.94,47.74,10.61-2.27,25.22-12.41,32.11-33.74l.18-.55c.88-2.69,3.56-10.88,2.23-13.03-.15-.23-.33-.37-.57-.42ZM286.49,465.91c-.13,0-.24-.06-.31-.17l-.09-.15c-4.21-6.81-8.57-13.85-13.6-19.84-.09-.11-.11-.26-.05-.39.06-.13.19-.21.33-.21.02,0,.1,0,.13,0,1.35,0,2.66-.34,3.84-.99.21-.12.42-.24.61-.38.1-.07.23-.08.34-.04.11.05.2.14.22.26.87,4.12,3.85,7.4,7.79,8.57,1.86.55,3.81.61,5.75.14.14-.03.29.02.38.13.09.11.1.27.03.4-2.1,3.77-3.79,7.94-5.02,12.39-.04.14-.16.24-.3.26-.02,0-.03,0-.05,0ZM273.54,445.86c4.72,5.73,8.85,12.35,12.83,18.79,1.14-3.94,2.65-7.65,4.48-11.05-1.8.32-3.61.2-5.35-.31-4.03-1.19-7.12-4.47-8.18-8.61-.07.04-.15.09-.23.13-1.1.6-2.32.96-3.55,1.05ZM288.84,447.94c-.56,0-1.13-.08-1.69-.25-3.26-.97-5.11-4.52-4.13-7.92h0c.49-1.68,1.58-3.06,3.08-3.88,1.4-.77,3.05-.95,4.56-.5,3.26.97,5.11,4.52,4.13,7.92-.48,1.68-1.58,3.06-3.08,3.88-.9.49-1.89.74-2.88.74ZM283.72,439.98c-.87,3.01.76,6.16,3.64,7.01,1.34.4,2.76.24,4-.44,1.33-.73,2.3-1.95,2.73-3.44.87-3.01-.76-6.16-3.64-7.02-1.32-.39-2.78-.23-4.01.44-1.33.73-2.29,1.95-2.73,3.44h0ZM272.91,440.05c-.27,0-.54-.04-.8-.12-1.58-.47-2.47-2.21-1.99-3.88.24-.83.77-1.5,1.51-1.91.67-.37,1.47-.46,2.18-.24,1.58.47,2.47,2.21,1.99,3.88-.24.83-.78,1.51-1.51,1.91-.43.24-.91.36-1.38.36ZM273,434.52c-.35,0-.71.09-1.03.27-.56.31-.97.83-1.16,1.47,0,0,0,0,0,0-.37,1.28.3,2.62,1.5,2.97.54.16,1.12.1,1.63-.18.56-.31.97-.83,1.16-1.47.37-1.28-.3-2.62-1.5-2.97-.19-.06-.39-.09-.59-.09ZM270.46,436.16h0,0Z"/>
    </g>
    <g>
      <path d="M333.06,379.69c-8.88-3.23-18.02-2.63-26.06.79.28-.4.53-.82.75-1.28,1.98-4.18.33-9.16-3.66-11.26,13.31-1.92,26.58-12.11,33.17-32.65-9.42-2.63-18.99-3.73-27.73.35,1.23-3.82,0-7.98-2.99-10.46,17.19-5.48,28.4-24.17,18.21-53.54-20.8,8.59-29.96,30.01-25.32,51.48-.66.09-1.32.23-1.97.46-2.45.87-4.42,2.65-5.54,5.03-.1.22-.19.45-.28.67-4.17-8.95-11.32-16.15-21.23-18.57-12.39,33.38,4.98,55.23,25.65,57.37-1.53.87-2.76,2.18-3.53,3.82-.28.58-.47,1.18-.61,1.78-.8-.74-1.72-1.38-2.75-1.87-2.76-1.33-5.87-1.5-8.78-.47-2.35.83-4.33,2.36-5.75,4.39-5.54-9.18-13.47-16.15-25.25-17.46-21.62,71.33,70.27,91.48,83.66,21.4ZM324.33,385.75c-5.33,16.54-17.97,26.95-34.41,30.1,1.08-18.16,16.97-31.61,34.41-30.1ZM284.95,404.07c-.72-3.21-1.54-6.51-2.51-9.79.5.07.99.11,1.5.11,1.29,0,2.59-.22,3.84-.67,3-1.06,5.4-3.24,6.78-6.15.71-1.51,1.08-3.09,1.15-4.65.24.15.49.29.75.41,1.14.55,2.36.83,3.6.83.1,0,.2,0,.3-.01-6.84,4.67-12.35,11.58-15.41,19.93ZM297.81,374.41c.33-.69.89-1.21,1.59-1.45.28-.1.56-.15.85-.15.37,0,.73.08,1.07.24h0c1.3.63,1.83,2.27,1.17,3.66-.33.69-.89,1.21-1.59,1.45-.64.22-1.32.19-1.92-.1-1.31-.63-1.83-2.27-1.17-3.66ZM326.14,340.3c-3.16,12.66-16.39,19.39-28.18,20.91,3.53-13,15.04-21.54,28.18-20.91ZM307.28,296.23c3.98-8.54,9.98-13.5,13.08-15.72.87,2.41,4.11,12.23-.29,23.51-4.4,11.28-13.44,16.31-15.71,17.49-.73-3.62-2.33-14,2.93-25.28ZM297.2,331.11c.46-.96,1.24-1.68,2.22-2.03.39-.14.8-.21,1.2-.21.52,0,1.04.12,1.52.35,1.84.89,2.59,3.19,1.67,5.13-.46.96-1.24,1.68-2.22,2.03-.91.32-1.87.27-2.72-.14-1.84-.89-2.59-3.19-1.67-5.13ZM288.58,357.9c-13.05-4.87-16.94-23.3-13.26-35.71,11.94,5.86,14.25,23.51,13.26,35.71ZM295.24,340.85c.35.23.71.45,1.1.64,1.28.62,2.66.93,4.05.93.14,0,.28-.01.42-.02l-4.9,4.68c-.09-2.08-.31-4.17-.67-6.23ZM278.89,380c.71-1.49,1.93-2.61,3.45-3.15.62-.22,1.26-.33,1.9-.33.83,0,1.65.19,2.41.55,2.88,1.39,4.06,4.98,2.64,7.99-.71,1.49-1.93,2.61-3.45,3.15-1.43.51-2.96.43-4.3-.22-.6-.29-1.12-.68-1.57-1.14-.52-1.37-1.08-2.73-1.67-4.06-.02-.93.17-1.89.6-2.79ZM255.04,368.57c16.46,6.39,22.69,29.05,21.33,45.85-17.93-7.28-25.43-27.09-21.33-45.85Z"/>
      <path d="M287.68,423.54c-10.87,0-21.42-4.2-29.29-12.03-12.45-12.39-15.86-31.83-9.34-53.33.05-.17.22-.27.39-.26,10.43,1.16,18.92,6.93,25.24,17.16,1.44-1.89,3.37-3.29,5.6-4.08,3-1.06,6.21-.89,9.06.48.85.41,1.65.93,2.39,1.54.13-.45.3-.87.49-1.28.65-1.37,1.61-2.54,2.82-3.42-9.71-1.31-18.22-6.83-23.47-15.28-6.96-11.19-7.48-26.28-1.47-42.46.06-.17.24-.27.43-.23,9.03,2.21,16.5,8.6,21.12,18.03,1.17-2.44,3.2-4.27,5.72-5.16.53-.19,1.08-.33,1.65-.42-4.71-22.56,5.55-43.23,25.62-51.51.09-.04.2-.04.29,0,.09.04.16.12.19.21,5.17,14.88,5.2,28.12.11,38.3-3.67,7.33-10.02,12.82-17.94,15.51,2.57,2.43,3.67,6.16,2.84,9.66,7.42-3.22,15.87-3.23,27.27-.05.09.03.17.09.22.18s.06.19.03.28c-5.87,18.3-17.68,30.18-32.48,32.74,3.55,2.43,4.86,7.16,2.94,11.22-.06.12-.12.24-.18.36,8.19-3.2,17.12-3.34,25.28-.37.17.06.27.24.23.41-4.08,21.36-16.16,36.62-33.15,41.87-4.16,1.28-8.4,1.91-12.6,1.91ZM249.67,358.69c-6.32,21.12-2.96,40.18,9.24,52.31,10.72,10.66,26.49,14.47,41.15,9.94,16.64-5.14,28.5-20.08,32.59-41-8.36-2.96-17.17-2.65-25.5.89-.15.06-.32.02-.43-.11-.1-.13-.11-.3-.02-.44.3-.42.53-.82.72-1.22,1.9-4.02.36-8.75-3.5-10.79-.14-.07-.22-.23-.19-.38s.15-.28.31-.3c14.88-2.14,26.81-13.81,32.76-32.04-11.4-3.13-19.77-2.99-27.11.43-.13.06-.28.04-.39-.06-.11-.1-.15-.25-.11-.39,1.17-3.63.02-7.68-2.88-10.06-.1-.08-.15-.22-.13-.35.03-.13.12-.24.25-.28,8.13-2.59,14.39-7.89,18.12-15.34,4.96-9.91,4.95-22.83-.02-37.37-19.61,8.29-29.55,28.7-24.75,50.92.02.1,0,.2-.06.29-.06.08-.15.14-.25.15-.66.08-1.29.23-1.89.45-2.36.83-4.25,2.55-5.34,4.84-.09.2-.17.4-.25.59-.05.14-.19.25-.34.26-.16,0-.29-.05-.35-.18-4.44-9.52-11.77-16-20.67-18.29-5.81,15.86-5.27,30.59,1.52,41.52,5.31,8.54,14.03,14.03,23.93,15.06.16.02.29.13.32.29.03.16-.04.31-.18.39-1.48.84-2.65,2.11-3.38,3.66-.25.53-.45,1.1-.59,1.71-.03.13-.12.23-.25.27-.12.04-.26,0-.35-.08-.81-.74-1.7-1.35-2.66-1.81-2.67-1.29-5.69-1.45-8.5-.45-2.26.8-4.18,2.27-5.57,4.26-.07.1-.18.16-.31.16-.12,0-.24-.07-.3-.18-6.25-10.37-14.32-16.01-24.68-17.25ZM289.92,416.21c-.09,0-.17-.03-.24-.09-.08-.07-.13-.18-.12-.3.53-8.84,4.51-16.91,11.22-22.71,6.64-5.73,15-8.48,23.58-7.73.11.01.21.07.27.16.06.09.08.21.04.31-5.25,16.29-17.57,27.07-34.69,30.35-.02,0-.05,0-.07,0ZM321.61,385.99c-7.42,0-14.56,2.68-20.35,7.68-6.44,5.57-10.32,13.27-10.94,21.73,16.45-3.3,28.33-13.69,33.52-29.33-.75-.05-1.49-.08-2.23-.08ZM276.38,414.78s-.09,0-.14-.03c-17.12-6.95-25.98-25.97-21.55-46.26.02-.1.09-.19.18-.24.09-.05.21-.06.3-.02,9.62,3.73,14.85,12.51,17.55,19.22,3.28,8.14,4.74,17.98,4.01,27,0,.12-.07.22-.17.28-.06.04-.13.05-.19.05ZM255.31,369.07c-4.1,19.6,4.38,37.9,20.74,44.82,1.23-17.29-5.57-38.61-20.74-44.82ZM284.95,404.43s-.02,0-.02,0c-.16-.01-.3-.13-.33-.28-.8-3.56-1.62-6.76-2.51-9.77-.04-.12,0-.25.07-.34.08-.09.19-.14.33-.12.54.07,1.01.11,1.45.11,1.26,0,2.51-.22,3.72-.64,2.9-1.03,5.24-3.14,6.57-5.97.67-1.42,1.05-2.94,1.11-4.51,0-.13.08-.25.19-.31.11-.06.25-.06.36.01.23.14.47.27.72.39,1.14.55,2.34.85,3.61.78h.12c.17,0,.31.09.36.24.05.15,0,.32-.14.41-6.92,4.73-12.34,11.74-15.27,19.75-.05.14-.19.24-.34.24ZM282.94,394.7c.74,2.54,1.43,5.21,2.1,8.11,1.49-3.74,3.52-7.25,5.99-10.4-.95.69-2,1.25-3.13,1.65-1.29.46-2.62.69-3.96.69-.31,0-.64-.02-.99-.05ZM296.03,383.51c-.13,1.46-.51,2.87-1.14,4.2-.14.29-.28.56-.43.84,1.49-1.48,3.09-2.85,4.78-4.08-1.02-.1-2-.37-2.94-.82-.09-.04-.18-.09-.27-.13ZM283.94,388.91c-.88,0-1.76-.2-2.57-.59-.61-.3-1.18-.7-1.67-1.21-.04-.04-.06-.08-.08-.13-.5-1.33-1.06-2.69-1.66-4.05-.02-.04-.03-.09-.03-.14-.02-1.03.19-2.02.63-2.95h0c.75-1.58,2.05-2.77,3.66-3.34,1.51-.54,3.15-.45,4.58.24,3.06,1.48,4.32,5.28,2.81,8.48-.75,1.58-2.05,2.77-3.66,3.34-.66.23-1.34.35-2.02.35ZM280.27,386.66c.42.42.9.76,1.41,1.01,1.26.61,2.69.68,4.03.21,1.43-.5,2.58-1.56,3.24-2.96,1.34-2.84.24-6.2-2.47-7.51-1.25-.6-2.7-.68-4.02-.21-1.43.5-2.58,1.56-3.25,2.96h0c-.38.8-.57,1.66-.57,2.56.58,1.32,1.13,2.64,1.62,3.94ZM300.05,378.68c-.42,0-.84-.09-1.22-.28-1.49-.72-2.09-2.58-1.35-4.15h0c.37-.78,1-1.36,1.79-1.64.72-.26,1.5-.22,2.17.1,0,0,.02,0,.02,0,1.48.72,2.09,2.58,1.35,4.14-.37.78-1.01,1.36-1.8,1.64-.32.11-.65.17-.97.17ZM300.25,373.17c-.24,0-.49.04-.73.13-.6.21-1.09.66-1.38,1.26h0c-.57,1.21-.12,2.63,1,3.18.51.24,1.09.27,1.64.08.6-.21,1.09-.66,1.38-1.27.57-1.2.13-2.62-.99-3.17,0,0-.01,0-.02,0-.28-.14-.59-.21-.91-.21ZM297.81,374.41h0,0ZM297.96,361.57c-.1,0-.2-.04-.28-.13-.08-.09-.11-.22-.08-.33,3.44-12.65,14.5-21.21,27.18-21.21.46,0,.91.01,1.37.03.11,0,.21.06.28.15s.09.2.06.31c-3.34,13.36-17.43,19.76-28.49,21.18-.02,0-.03,0-.05,0ZM324.79,340.63c-12.18,0-22.82,8.1-26.33,20.14,10.62-1.51,23.82-7.63,27.21-20.12-.29,0-.59-.01-.88-.01ZM288.58,358.26s-.09,0-.13-.02c-6.06-2.26-10.72-7.68-13.12-15.26-2.12-6.69-2.25-14.5-.35-20.89.03-.1.1-.19.2-.23.1-.04.21-.04.31,0,5.49,2.69,9.41,7.98,11.67,15.7,2.35,8.05,2.13,16.21,1.79,20.36,0,.11-.07.22-.17.28-.06.04-.13.06-.2.06ZM275.55,322.72c-4.46,15.73,3,30.68,12.7,34.66.93-12.62-1.86-28.99-12.7-34.66ZM295.91,347.45s-.09,0-.14-.03c-.13-.05-.22-.18-.23-.32-.08-2.04-.31-4.13-.66-6.19-.02-.14.04-.29.16-.37.12-.08.28-.08.4,0,.39.26.72.45,1.05.61,1.31.63,2.71.97,4.14.89h.15c.15-.01.29.07.35.21s.02.3-.08.41l-4.9,4.68c-.07.07-.16.1-.25.1ZM295.73,341.58c.24,1.56.41,3.13.5,4.69l3.66-3.5c-1.28-.07-2.53-.39-3.71-.95-.15-.07-.3-.15-.45-.24ZM300.39,336.95c-.58,0-1.15-.13-1.68-.38-2.02-.97-2.84-3.49-1.84-5.61h0c.5-1.05,1.36-1.84,2.42-2.21.99-.35,2.07-.3,3,.15,2.02.97,2.84,3.49,1.84,5.61-.5,1.05-1.36,1.84-2.43,2.21-.43.15-.88.23-1.33.23ZM300.62,329.24c-.37,0-.73.06-1.08.19-.88.31-1.59.96-2.01,1.84h0c-.83,1.76-.16,3.84,1.5,4.64.76.37,1.63.41,2.44.12.88-.31,1.59-.96,2.01-1.84.83-1.76.16-3.84-1.5-4.64-.43-.21-.89-.31-1.36-.31ZM297.2,331.11h0,0ZM304.35,321.87c-.05,0-.11-.01-.16-.04-.1-.05-.18-.14-.2-.26-1.01-5-1.97-14.95,2.95-25.5h0c3.7-7.93,9.22-13,13.19-15.86.09-.07.21-.09.32-.05.11.03.2.12.24.22,1.3,3.59,3.87,13.09-.3,23.77-4.17,10.67-12.49,15.92-15.88,17.68-.05.03-.11.04-.17.04ZM320.17,281.09c-3.87,2.86-9.05,7.76-12.57,15.29h0c-4.68,10.04-3.95,19.52-2.99,24.57,3.54-1.92,11.2-7.05,15.11-17.07,3.91-10.02,1.76-18.98.45-22.79ZM307.28,296.23h0,0Z"/>
    </g>
  </g>
  <g>
    <g>
      <path d="M615.47,346.54l-1.42-2.65-2.41,2.29s-.03-.03-.04-.04h0s-.13-.13-.13-.13c-5.71-6-10.69-10.55-14.42-13.16-2.51-1.76-5.27-2.86-8.21-3.27l-1.55-.22-.86-1.3c-3.16-4.8-5.99-8.38-9.58-10.23l-.62-.31c-.68-.33-1.33-.58-1.98-.75h0c-2.69-.75-5.41-.72-8.29-.68-2.66.04-5.41.07-8.34-.5-.18-.03-.37-.08-.57-.13l-.22-.05c-.98-.27-2.21-.68-3.74-1.25l-5.04-1.86,3.79-3.8c1.85-1.85,3.37-3.57,4.5-5.11,5.34-7.22,12.38-7.96,19.85-8.75,3.97-.42,8.07-.85,12.63-2.2,7.65-2.26,11.49-4.81,14.29-6.68,3.31-2.2,6.15-4.1,11.55-3.08,13.21,2.52,25.11,19.17,25.22,19.34.43.63,1.42,2.08,3.09,3.72,1.05,1.02,2.17,1.92,3.44,2.76l4.13,2.72-3.97,2.93c-7.85,5.79-17.46,15.02-22.89,21.14-.93,1.05-1.63,2.49-2.38,4.01-1.29,2.62-2.74,5.6-5.83,7.25ZM591.36,323.02c3.45.7,6.68,2.1,9.65,4.18,4.19,2.94,8.97,7.44,12.89,11.41.41-.68.8-1.49,1.22-2.35.87-1.78,1.86-3.8,3.41-5.55,4.87-5.49,12.97-13.38,20.38-19.35-.25-.23-.5-.46-.74-.7-2.17-2.12-3.48-4.05-3.91-4.69-2-2.92-11.82-14.81-20.87-16.54-2.62-.5-3.51.09-6.44,2.05-2.99,1.99-7.51,5-16.16,7.55-5.16,1.52-9.78,2.01-13.86,2.44-6.92.73-11.5,1.21-15.03,5.99-.38.52-.8,1.05-1.25,1.59,1.69.17,3.42.15,5.23.13,3.23-.04,6.58-.08,10.22.93h0c1.05.29,2.07.68,3.12,1.19l.33.16-1.28,3.21,1.51-3.1.3.15c4.93,2.55,8.42,7.04,11.29,11.29Z"/>
      <path d="M511.87,400.64h-103.23l-.13-16.74,3.01-.44c1.74-.25,3.52-.41,5.24-.56,4.63-.4,9.01-.78,12.9-2.92,5.86-3.22,8.89-10.1,11.81-16.75,2.12-4.83,4.13-9.38,7.22-12.49,5.22-5.26,10.6-7.38,15.8-9.43,7.31-2.89,13.63-5.38,19.34-16.68.84-1.67,1.46-4.19,2.01-6.41.67-2.71,1.24-5.05,2.32-6.63,1.13-1.66,16.56-12.97,17.9-13.47,10.39-3.83,19.39-.77,28.09,2.19,1.74.59,3.48,1.18,5.24,1.72,2.88.88,6.5,2.3,9.99,3.68,3.56,1.4,7.24,2.86,9.23,3.34.35.09.57.15.77.19,2.27.45,4.58.43,7.05.41,3.28-.02,6.67-.05,10.35.99.92.26,1.83.59,2.71.99.12.06.25.12.39.19l.56.28c5.33,2.9,9.03,8.05,12.08,12.66l4.21,6.36-7.57-.98c-.5-.06-1.01-.1-1.51-.13h-.47c-.42-.02-.82-.02-1.23,0h-.24c-.61.04-1.1.1-1.59.17l-.43.07c-.46.08-.82.15-1.19.23l-.48.11c-.47.12-.95.26-1.42.42l-.51.19c-.34.12-.68.26-1.02.4l-.53.23c-.45.2-.9.43-1.34.67l-.48.28c-.32.19-.64.38-.96.59l-.54.36c-.42.29-.83.59-1.24.91l-.44.37c-.3.25-.59.5-.88.77-.18.16-.35.33-.53.5-.3.29-.59.59-.87.9l-.25.26c-1,1.11-2,3-2.97,4.83-1.85,3.49-3.76,7.1-6.92,8.99-2.52,1.51-5.18,2.1-7.75,2.67-2.92.65-5.68,1.26-8.29,3.2-2.37,1.76-4.07,4.91-5.56,7.68-1.32,2.45-2.57,4.76-4.31,6.24-1.73,1.46-3.72,2.14-5.47,2.73-2.16.73-4.03,1.37-5.67,3.35h0c-5.41,6.52-8.74,14.39-11.29,21.24l-.85,2.27ZM415.57,393.65h91.47c2.65-6.84,6.14-14.41,11.6-20.99h0c2.9-3.5,6.31-4.66,8.79-5.5,1.34-.45,2.49-.85,3.22-1.46.73-.62,1.76-2.53,2.67-4.21,1.75-3.25,3.93-7.29,7.54-9.98,3.81-2.83,7.6-3.67,10.95-4.41,2.21-.49,4.12-.91,5.67-1.84,1.5-.9,3.01-3.76,4.35-6.28,1.17-2.2,2.37-4.48,3.88-6.16.1-.12.21-.23.33-.34.43-.46.81-.85,1.19-1.22.23-.22.45-.43.68-.64.37-.34.75-.67,1.13-.98l.15-.13c.14-.12.28-.24.43-.35.53-.42,1.07-.81,1.62-1.19.22-.15.43-.29.65-.43.48-.31.89-.56,1.31-.8.32-.19.48-.28.65-.37.59-.32,1.19-.62,1.79-.89l.6-.26c.55-.23,1.01-.41,1.46-.58l.68-.24c.65-.22,1.29-.4,1.93-.57l.48-.11c.65-.15,1.15-.25,1.66-.33l.43-.07c-1.71-2.07-3.61-3.91-5.77-5.09l-.4-.2c-.66-.31-1.24-.52-1.82-.68-2.73-.77-5.48-.75-8.4-.73-2.7.02-5.48.04-8.45-.54-.35-.07-.74-.16-1.16-.28-2.36-.57-6.09-2.04-10.05-3.6-3.37-1.33-6.85-2.7-9.47-3.5-1.83-.56-3.64-1.17-5.45-1.79-7.83-2.66-15.23-5.17-23.2-2.33-2.05,1.27-12.9,9.39-14.89,11.12-.37.79-.87,2.81-1.21,4.19-.64,2.59-1.36,5.52-2.56,7.89-6.91,13.66-15.46,17.04-23,20.02-4.74,1.87-9.22,3.64-13.41,7.86-2.17,2.19-3.92,6.17-5.78,10.38-3.24,7.36-6.9,15.7-14.84,20.06-5.19,2.85-10.75,3.33-15.66,3.76-.62.05-1.23.11-1.82.16l.03,3.64Z"/>
      <path d="M640.92,379.43c-7.09,0-9.57-5.95-11.38-10.3-.83-1.98-1.61-3.86-2.67-5.27-2.63-3.48-6.14-7.7-9.9-11.9l-.24-.27c-.51-.57-1.02-1.13-1.54-1.7l-5.74-6.1,3.82-2.36c1.13-.62,1.97-2.29,2.93-4.24.89-1.8,1.91-3.84,3.49-5.61,4.29-4.79,12.2-13.22,20.22-19.63l-.26-.17,4.01-2.97c1.43-1.06,2.87-1.9,4.15-2.64l.98-.57c10.65-6.36,24.49-4.74,33.67,3.94,1.48,1.4,2.65,3.27,3.78,5.08,1.23,1.97,2.62,4.19,3.97,4.88,1.48.75,3.3,1.09,5.41,1.49,3.15.59,6.72,1.26,10.33,3.53,1.6,1.01,3.07,2.36,4.49,4.13l2.78,3.47-4.03,1.88c-2.33,1.09-4.74,2.21-6.81,3.09-.47.2-.87.36-1.25.51l-.2.08c-.34.13-.68.27-1.01.38l-.26.09c-.32.11-.63.22-.91.31l-.3.08c-.29.09-.58.17-.83.22-2.64.61-5.2.67-7.54.67l-1.46-.02c-.62,0-1.22-.01-1.88-.02-2.21,0-4.57.11-6.89.87-6.18,2.03-10.28,9.51-14.63,17.43-5.54,10.1-11.82,21.54-24.22,21.65h-.1ZM619.89,344.78l.44.48c.54.58,1.07,1.17,1.59,1.75l.19.21c3.94,4.4,7.58,8.79,10.32,12.41,1.6,2.12,2.63,4.6,3.55,6.79,1.93,4.64,2.82,6.01,4.94,6.01.01,0,.03,0,.04,0,8.3-.07,13.09-8.79,18.16-18.02,4.81-8.76,9.78-17.81,18.57-20.7,3.25-1.07,6.27-1.22,9.06-1.22.67,0,1.32,0,1.97.02h1.41c2.25.03,4.1-.05,5.95-.48.13-.03.27-.07.4-.11l.22-.06c.2-.06.42-.14.65-.22l1.38,3.22-1.19-3.28c.27-.1.56-.21.86-.33.5-.2.85-.34,1.22-.5.55-.24,1.14-.49,1.74-.76-2.22-1.17-4.56-1.61-7.01-2.07-2.42-.45-4.92-.92-7.3-2.13-3.07-1.56-5.01-4.66-6.72-7.39-.9-1.43-1.83-2.92-2.66-3.71-6.91-6.54-17.31-7.78-25.29-3.02l-1.04.61c-.1.06-.21.12-.31.18l-3.92,2.85c-8.48,6.17-17.55,15.81-22.2,21h0c-.95,1.06-1.67,2.51-2.43,4.05-.72,1.45-1.49,3.01-2.56,4.4Z"/>
      <path d="M788.13,400.64h-283.7l1.76-4.71c2.76-7.4,6.4-15.95,12.47-23.26,2.9-3.5,6.31-4.66,8.79-5.5,1.34-.45,2.49-.85,3.22-1.46.73-.62,1.76-2.53,2.67-4.21,1.75-3.25,3.93-7.29,7.54-9.98,3.81-2.83,7.6-3.67,10.95-4.41,2.21-.49,4.12-.91,5.67-1.84,1.5-.9,3.01-3.76,4.35-6.28,1.17-2.2,2.38-4.48,3.89-6.17l.29-.31c.46-.49.84-.88,1.22-1.26.23-.22.45-.43.68-.64.37-.34.75-.67,1.13-.98l.15-.13c.14-.12.28-.24.43-.35.53-.42,1.07-.81,1.62-1.19.22-.15.43-.29.65-.43.48-.31.89-.56,1.31-.8.32-.19.48-.28.65-.37.59-.32,1.19-.62,1.79-.89l.6-.26c.55-.23,1.01-.41,1.46-.58l.68-.24c.65-.22,1.29-.4,1.93-.57l.48-.11c.65-.15,1.15-.25,1.66-.33l.69-.11c.67-.09,1.35-.17,2.02-.21l.4-.02c.65-.03,1.21-.03,1.77-.02l.64.02c.77.04,1.54.1,2.3.21l1.61.22.16.26c3.54.71,6.87,2.16,9.92,4.32,4.46,3.16,9.58,8.08,13.59,12.22l.03-.02,4.76,5.03c.54.58,1.07,1.17,1.59,1.75l.19.21c3.92,4.38,7.56,8.77,10.31,12.41,1.6,2.12,2.63,4.6,3.55,6.79,1.93,4.64,2.82,6.01,4.94,6.01.02,0,.03,0,.04,0,8.31-.07,13.1-8.79,18.17-18.02,4.81-8.76,9.78-17.81,18.57-20.7,3.24-1.06,6.26-1.21,9.05-1.22.68,0,1.32,0,1.97.02h1.41c2.21.03,4.11-.05,5.96-.48l.61-.17c.2-.06.42-.14.65-.22l1.38,3.22-1.19-3.28c.27-.1.56-.21.86-.33.5-.2.85-.34,1.22-.5l1.41,3.2-1.36-3.22c2.01-.85,4.44-1.98,6.59-2.99,3.48-1.62,7.42-3.47,10.5-4.58,1.85-.67,3.69-1.41,5.52-2.14,9.25-3.71,18.81-7.56,29.89-2.76,12.14,5.25,19.07,16.05,19.82,17.26,2.26,3.65,3.18,6.42,4,8.87.92,2.75,1.71,5.12,4.42,8.64,2.52,3.28,4.49,4.66,5.93,5.67l1.47,1.03.33,40.88ZM514.56,393.65h266.53l-.24-30.29c-1.77-1.35-3.7-3.09-5.98-6.06-3.42-4.45-4.48-7.62-5.51-10.68-.76-2.29-1.49-4.45-3.32-7.41-.25-.41-6.3-10.05-16.66-14.53-8.41-3.64-15.87-.64-24.52,2.83-1.91.77-3.82,1.53-5.76,2.23-2.75.99-6.39,2.69-9.92,4.33-2.43,1.14-4.78,2.23-6.81,3.09l-.09.04-1.27-3.25,1.26,3.25c-.37.16-.76.32-1.15.47l-.2.08c-.34.13-.68.27-1.01.38l-.26.09c-.32.11-.63.22-.91.31l-.3.08c-.34.1-.59.17-.81.22-2.66.61-5.22.67-7.56.67l-1.46-.02c-.62,0-1.28,0-1.88-.02-2.2,0-4.56.11-6.88.87-6.18,2.03-10.28,9.51-14.63,17.43-5.54,10.1-11.82,21.54-24.23,21.65-7.13.08-9.67-5.93-11.49-10.3-.83-1.98-1.61-3.86-2.67-5.26-2.64-3.5-6.15-7.73-9.89-11.9l-.24-.27c-.51-.57-1.02-1.13-1.54-1.7l-.94-1.02-.04.02-1.86-1.97c-5.7-6.04-10.69-10.63-14.43-13.28-2.58-1.83-5.43-2.97-8.46-3.37l-1.57-.21-.09-.14c-.05,0-.1,0-.16,0h-.47c-.42-.02-.82-.02-1.23,0h-.24c-.61.04-1.1.1-1.59.17l-.43.07c-.46.08-.82.15-1.19.23l-.48.11c-.47.12-.95.26-1.42.42l-.51.19c-.34.12-.68.26-1.02.4l-.53.23c-.45.2-.9.43-1.34.67l-.48.28c-.32.19-.64.38-.96.59l-.54.36c-.42.29-.83.59-1.24.91l-.44.37c-.3.25-.59.5-.88.77-.18.16-.35.33-.53.5-.3.29-.59.59-.87.9l-.19.2c-1.06,1.17-2.06,3.07-3.03,4.9-1.85,3.49-3.76,7.09-6.92,8.99-2.52,1.51-5.18,2.1-7.75,2.67-2.92.65-5.68,1.26-8.29,3.2-2.37,1.76-4.07,4.91-5.56,7.68-1.32,2.45-2.57,4.76-4.31,6.24-1.73,1.46-3.72,2.14-5.47,2.73-2.16.73-4.03,1.37-5.67,3.35-4.22,5.09-7.12,10.82-9.46,16.53ZM614.96,344.64h0s0,0,0,0Z"/>
    </g>
    <polygon points="763.44 397.24 763.42 396.27 763.44 396.27 763.44 397.24"/>
  </g>
  <path d="M793.36,89.77l-7.53-3.13c-1.84-.76-3.88-.2-5.11,1.23l-5.02,12.14-3.73-1.65-2.46-1.02,4.48-10.78c.95-2.29-.13-4.91-2.42-5.86l-7.53-3.13c-2.29-.95-4.91.13-5.87,2.42l-4.86,11.68h0s2.53,16.2,2.53,16.2h0s-16.52,39.72-16.52,39.72c-8.86-3.57-18.36-6.84-28.4-9.74l8.11-40.93,10.98-12.39h0s2.46-12.4,2.46-12.4c.48-2.43-1.1-4.79-3.53-5.27l-8-1.59c-2.43-.48-4.79,1.1-5.27,3.53l-2.27,11.45-6.19-1.23,2.27-11.45c.48-2.43-1.1-4.79-3.53-5.27l-8-1.59c-2.43-.48-4.79,1.1-5.27,3.53l-2.27,11.45-7.01-1.39,2.27-11.45c.48-2.43-1.1-4.79-3.53-5.27l-8-1.59c-2.43-.48-4.79,1.1-5.27,3.53l-2.46,12.4h0s5.67,15.38,5.67,15.38h.01s-7.99,40.34-7.99,40.34c-12.73-1.94-25.97-3.33-39.59-4.1v-41.08h.01s8.55-13.99,8.55-13.99h0v-12.65c0-2.48-2.01-4.49-4.49-4.49h-8.16c-2.48,0-4.49,2.01-4.49,4.49v11.67h-7.15v-11.67c0-2.48-2.01-4.49-4.49-4.49h-8.16c-2.48,0-4.49,2.01-4.49,4.49v11.67h-6.31v-11.67c0-2.48-2.01-4.49-4.49-4.49h-8.16c-2.48,0-4.49,2.01-4.49,4.49v12.65h0l8.36,14.28v40.7c-13.53.71-27.28,2.07-41.14,4.12l-7.98-40.27h.01s5.67-15.38,5.67-15.38h0s-2.46-12.4-2.46-12.4c-.48-2.43-2.84-4.01-5.27-3.53l-8,1.59c-2.43.48-4.01,2.84-3.53,5.27l2.27,11.45-7.01,1.39-2.27-11.45c-.48-2.43-2.84-4.01-5.27-3.53l-8,1.59c-2.43.48-4.01,2.84-3.53,5.27l2.27,11.45-6.19,1.23-2.27-11.45c-.48-2.43-2.84-4.01-5.27-3.53l-8,1.59c-2.43.48-4.01,2.84-3.53,5.27l2.46,12.4h0s10.98,12.39,10.98,12.39l7.99,40.3c-10.39,2.75-20.79,5.93-31.13,9.57l-16.19-38.91h0s2.53-16.2,2.53-16.2h0s-4.86-11.68-4.86-11.68c-.95-2.29-3.58-3.37-5.87-2.42l-7.53,3.13c-2.29.95-3.37,3.58-2.42,5.86l4.48,10.78-2.46,1.02-3.73,1.65-5.02-12.14c-1.23-1.43-3.27-2-5.11-1.23l-7.53,3.13c-2.29.95-3.37,3.58-2.42,5.86l4.86,11.68h0s13.21,9.98,13.21,9.98l15.83,38.04c-.05.02-.1.04-.15.06l.97,2.42s0,0,0,0c.5,1.2,3.53,8.8,4.09,10.19l.05-.02,15.85,39.01c66.84-30.51,220.56-30.13,286.19,1.21-.24-.34,18.62-49.13,18.62-49.47-.02-.01-.04-.02-.06-.04,0,0,.16-.39.44-1.1-.04-.02-.08-.04-.12-.06l16.75-40.26,13.21-9.98h0s4.86-11.68,4.86-11.68c.95-2.29-.13-4.91-2.42-5.86Z"/>
  <path d="M573.16,501.46c-7.62,0-14.9-.31-21.62-.93-1.28-.12-8-.8-14.35-2.66-9.17-2.69-13.8-6.65-13.76-11.78.02-3.32,2.03-6.05,3.81-8.45.67-.9,1.84-2.5,2.1-3.28-.07-.07-.16-.16-.3-.26-.64-.32-1.23-.67-1.77-1.02-.27-.13-.56-.25-.88-.38-14.57-5.92-60.46-1.54-77.73.12l-2.3.22c-10.27.97-21.42,2.3-34.1,4.07l-3.45.48v-62.46l2.36-.45c.18-.04.29-.06.4-.08,23.05-4.03,59.87-5.52,70.61-5.88,11.05-.37,23.56-.79,35.68.6,11.6,1.33,17.89,4.06,19.79,8.6,1.56,3.72-.11,7.95-5.1,12.94-.14.23-.09.31-.06.37,1.19,2.08,10.21,4.5,16.5,4.94,48.32,3.43,97.96-2.21,156.24-17.73,21.74-5.02,47.24-9.7,72.42-6.58,2.69.33,7.01.96,11.05,1.73l2.36.45v65.08l-4.04-1.34c-34.24-11.36-66.18-2.59-99.99,6.7-13.4,3.68-27.21,7.47-41.18,9.92-18.38,3.22-45.91,7.07-72.69,7.07ZM499.81,464.37c12.39,0,22.76.95,29.06,3.52.53.21,1.01.43,1.45.64l.41.24c.41.29.9.57,1.45.83l.43.26c1.45,1.03,2.34,2.16,2.64,3.36.61,2.43-1.22,4.91-3,7.31-1.46,1.97-2.83,3.83-2.84,5.6-.04,5.13,13.93,8.33,22.75,9.15,6.52.6,13.59.9,21,.9,26.29,0,53.41-3.79,71.53-6.97,13.66-2.4,27.32-6.15,40.53-9.78,33.55-9.21,65.28-17.93,99.86-7.87v-53.23c-3.13-.54-6.2-.98-8.27-1.24-24.13-2.99-48.92,1.58-69.98,6.44-58.1,15.48-109.93,21.34-158.33,17.91-.18-.01-17.77-1.53-21.36-7.84-1.04-1.82-.89-3.85.42-5.71l.31-.37c3.38-3.33,4.85-6.09,4.15-7.77-.57-1.36-3.27-3.85-14.95-5.19-11.62-1.33-23.87-.92-34.68-.56-10.31.34-44.9,1.73-67.62,5.43v51.96c11.37-1.54,21.52-2.73,30.94-3.62l2.29-.22c17.78-1.7,36.37-3.18,51.81-3.18ZM529.38,474.16h0Z"/>
</svg>